<?xml version="1.0" encoding="UTF-8"?><svg id="Layer_2" xmlns="http://www.w3.org/2000/svg" viewBox="0 0 205.8 180.99"><defs><style>.cls-1{fill:#f7f3f3;stroke-width:0px;}</style></defs><g id="Layer_1-2"><path class="cls-1" d="M59.38,48c.9-8.14,1.68-16.44,2.32-24.68.3-3.92.58-7.83.82-11.75.02-.28.04-.56.06-.85.18-2.21.41-4.95-2.41-6.08-1.13-.46-2.37-.44-3.57-.43-.38,0-.75,0-1.11,0-2.48-.09-4.96-.2-7.44-.33-4.47-.23-9.05-.52-13.62-.87C25.21,2.29,15.66,1.29,6.04.02c-.54-.07-1.03.09-1.37.46-.25.27-.41.63-.44,1.02-.19.11-.36.25-.51.45-1.78,2.4-1.91,5.09-1.89,7.64.04,3.39.12,6.78.2,10.17l.05,2.22c.2,8.05.46,16.38.79,24.77l.12,3.12c.11,3.04.23,6.18.42,9.27.19,3.04.86,4.71,3.92,5.13.15.02.31.04.47.05,2.29.21,4.59.19,6.89.07-1.37,12.37-3.49,24.65-4.52,37.05-.27,3.22-.46,6.45-.54,9.68-.06,2.25.25,5.52-1.11,7.45-.9,1.27-2.9,1.35-3.75,2.49-1.08,1.45-1.01,3.86-1.24,5.51-1.77,13.09-2.74,26.27-3.36,39.46-.13,2.84-.84,6,2.13,7.45,2.11,1.03,5.4,1.13,7.66,1.57,3.4.67,6.8,1.33,10.2,2,.59.12,1.08-.37,1.19-.9,2.77-13.33,4.32-26.86,4.46-40.49.06-5.75.18-16.15-7.49-16.38,2.01-18.5,3.83-37.02,5.46-55.56,2.55-.18,5.11-.31,7.64-.17,2.13.12,4.28.36,6.57.61,5.31.58,10.8,1.18,15.93.26,2.3-.41,3.09-1.64,3.61-3.49.9-3.22,1.23-6.66,1.55-10,.1-.98.19-1.97.3-2.93ZM23.43,61.17c-.42-.26-.95-.25-1.28.1-1.35.1-2.72.19-4.04.32-.62.06-1.25.12-1.88.17-.34-.13-.71-.14-.98.09-2.59.22-5.2.35-7.77.12-.51-.05-1.08-.13-1.37-.46-.26-.29-.3-.8-.32-1.35-.81-16.73-1.37-33.8-1.65-50.74-.04-2.24.03-4.55,1.45-6.13l.54-.91c17.06,2.26,34.43,3.68,51.65,4.23.98.03,2.05.15,2.42.85.19.36.18.85.14,1.41-.82,13.95-2.04,28.06-3.63,41.92-.38,3.32-.78,6.55-1.46,9.68-.11.51-.24.99-.53,1.27-.31.3-.88.37-1.43.41-5.15.41-10.41-.03-15.5-.45-4.54-.38-9.23-.77-13.86-.57-.17,0-.34.03-.51.04Z"/><path class="cls-1" d="M43.27,31.71c.66-.66.29-1.34.36-2.11.09-.94,0-1.81-.04-2.76-.03-1.07.19-2.16.19-3.24,0-1.3-.12-2.59-.39-3.86-.17-.82-.3-2.08-1.05-2.62-.89-.64-2.24-.1-3.21.05-6.01.97-12.11,1.05-18.14.28-.43-.05-.7.15-.9.42-.52-.07-1.05.19-1.1.87-.17,2.58-.09,5.16.29,7.72.17,1.16.41,2.3.7,3.43.25.97.45,2.07,1.21,2.79.72.67,1.66.78,2.6.76,1.39-.03,2.79-.17,4.17-.26,2.77-.17,5.55-.35,8.32-.52,1.35-.08,2.69-.17,4.04-.25.98-.06,2.19.06,2.94-.69Z"/><path class="cls-1" d="M22.93,38.06s-.01-.05-.03-.06c-.27-.2-.65-.2-1-.1-.45.08-.86.35-.91.82,0,.05.03.08.04.13-.44.85-.74,1.79-.52,2.74.25,1.1,1.1,2.2,2.31,2.28,1.1.08,2.01-.57,2.48-1.54.46-.96.32-2.04-.26-2.9-.47-.71-1.27-1.13-2.11-1.37Z"/><path class="cls-1" d="M42.13,38.8c-.38-.53-.96-.86-1.58-1.01-.45-.11-.89-.02-1.31.15-.53-.07-1.06,0-1.53.29-.54.34-.92.95-.98,1.58-.12,1.28.78,2.53,1.95,3,.53.21,1.14.3,1.7.16.61-.15,1.13-.46,1.54-.94.78-.89.9-2.25.21-3.22Z"/><path class="cls-1" d="M39.36,57.23c.76.89,2.09,1.92,3.34,1.56.84-.25,1.18-1.04,1.52-1.77.31-.67.62-1.34.88-2.03.45-1.21.63-2.45.64-3.72.77.08,1.54.11,2.31.2.74.08,1.45-.42,1.55-1.17,1.79-13,1.83-26.18.1-39.19-.11-.8-.8-1.19-1.54-1.18-11.86.1-23.72.36-35.58.46-.79,0-1.13.55-1.13,1.15-.03.13-.06.25-.05.39.42,6.44.85,12.88,1.27,19.31.21,3.15.41,6.3.62,9.45.16,2.49-.25,5.95.96,8.21.95,1.78,2.84,1.87,4.63,1.78-.08.6-.05,1.22.12,1.84.34,1.22,1.25,2.31,2.29,3.01,1.19.81,2.95,1.5,4.21.42.57-.49.84-1.17,1.06-1.87.19-.58.35-1.18.43-1.79.08-.62.05-1.27-.1-1.89.5,0,.99-.05,1.48-.05,3.25-.02,6.51.07,9.76.25-.69,2.21-.3,4.83,1.23,6.61ZM23.6,47.73c-1.34.04-2.68.1-4.02.18-1.68.1-3,.16-3.18-1.81-1.02-10.96-1.48-22-2.18-32.99,10.96-.1,21.92-.32,32.88-.43,1.48,11.95,1.45,24-.08,35.95-5.12-.55-10.26-.9-15.42-.97-2.67-.04-5.34-.01-8,.07Z"/><path class="cls-1" d="M195.48,155.06c.48-7.22.62-14.46.8-21.69.37-15.27.75-30.54,1.12-45.81,2.39.1,4.77.16,7.16.27.04,0,.06-.03.1-.04.52.06,1.05-.2,1.1-.87,1.34-19.64-25.06-22.3-38.78-23.63-24.22-2.35-48.51-4.08-72.82-5.17-9.35-.42-17-.98-24.61,5.08-3.18,2.54-14.02,10.8-10.66,16.11,1.45,2.29,6.17,1.97,8.34,2.24.62.08,1.24.12,1.86.19-2.85,18.52-3.75,37.22-2.59,55.93.32,5.18.7,10.36.53,15.55-.15,4.54-.85,9.05-.84,13.6,0,2.32-.38,6.62,1.24,8.57,1.95,2.34,7.55,2.99,10.3,3.91.82.27,1.47-.28,1.47-1.11-.03-15.28-1.76-30.55-1.54-45.82,14.3,3.02,29.77,1.8,44.17,2.03,1.33.02,2.65.05,3.98.08-.94,13.46-1.97,26.92-3.13,40.36-.33,3.78,5.54,4.63,5.87.82,1.18-13.68,2.22-27.37,3.18-41.07,6.33.11,12.65.22,18.98.36,4.81.11,9.62.22,14.43.35,2.68.07,7.54-.65,10.96.13.5,14.59,2.21,29.11,3.99,43.59.06.49.45.82.9.91,3.89.8,7.74,1.12,11.71,1.03.62-.01.91-.67.91-1.19,0-8.28,1.36-16.47,1.9-24.72ZM81.6,99.93c15.03.55,30.08.95,45.01,2.79.39.05.79.07,1.19.11-.23,4-.52,8-.77,12-15.85-1.03-31.66-2.62-47.42-4.61.56-3.45,1.24-6.88,2-10.29ZM100.41,128.24c-7.49-.11-15.22-.21-22.58-1.85,0-.1,0-.21.01-.31.18-3.33.51-6.66.93-9.98,15.91,2.01,31.88,3.63,47.89,4.65-.17,2.62-.32,5.24-.5,7.86-8.58-.14-17.16-.24-25.74-.36ZM127.43,96.86c-14.74-1.81-29.61-2.23-44.45-2.77.89-3.56,1.86-7.09,2.89-10.59.22.02.44.05.65.07,11.79,1,23.62,1.6,35.45,2,18.21.63,36.43.85,54.64,1.3-.92,4.67-.58,9.37-.35,14.13-15.81-3.86-32.73-2.16-48.83-4.14ZM133.68,103.37c14.26.96,28.92.14,42.7,3.71-.01,2.51-.07,5.02-.16,7.52-6.98-.43-14.13.86-21.09,1.04-7.4.19-14.81-.08-22.21-.48.24-3.93.53-7.86.75-11.79ZM173.13,129.63c-5.15-.14-10.31-.27-15.46-.4-8.54-.2-17.07-.37-25.61-.53.17-2.55.33-5.1.49-7.66,6.44.34,12.89.58,19.34.53,7.87-.06,16.24-1.65,24.13-1.04-.11,2.97-.19,5.95-.17,8.92,0,.08,0,.17,0,.25-.89-.04-1.8-.05-2.73-.08Z"/></g></svg>