<svg width="1001" height="723" viewBox="0 0 1001 723" fill="none" xmlns="http://www.w3.org/2000/svg">
<g clipPath="url(#clip0_11_182)">
<path d="M1000.91 0V703.21L767.15 702.44C697.384 702.2 627.617 701.96 557.85 701.72C535.37 701.64 512.85 701.48 490.42 701.51C486.73 701.51 485.42 700.41 485.65 696.6C486.08 690.47 485.88 684.29 486.23 678.14C486.46 674.14 485.7 671.83 480.9 672.08C476.96 672.28 473.44 671.4 473.58 677.59C473.83 688.73 473.19 699.88 473.12 711.04C473.12 714.04 472.2 715.18 469.12 715.14C462.46 715.04 455.8 715.3 449.12 715.26C447.878 715.073 446.68 714.666 445.58 714.06C443.81 713.34 442.06 711.84 440.33 711.89C395.07 713.223 349.81 714.683 304.55 716.27C244.484 718.27 184.41 720.27 124.33 722.27C120.04 722.41 113.9 723.94 111.92 721.79C109.59 719.26 110.42 713.38 110.72 709.01C111.08 703.91 109.04 702.93 104.41 703.12C79.1302 704.12 53.8302 704.98 28.5402 705.78C24.0602 705.93 19.3402 705.38 21.1102 713.08C15.2902 713.08 10.1702 712.87 5.11022 713.15C1.26022 713.36 -0.0497775 712.25 0.0202225 708.15C0.640223 674.21 1.02022 640.27 1.50022 606.33C1.79022 586.87 2.38022 567.41 2.50022 547.95C3.32022 451.24 3.86022 354.52 4.86022 257.81C5.52022 194.23 6.86022 130.65 7.71022 67.07C7.71022 63.17 8.84022 60.43 12.0602 58.25C14.1202 56.87 15.6502 54.66 17.7802 53.47C18.5463 53.0669 19.3927 52.8398 20.2576 52.8052C21.1226 52.7706 21.9844 52.9294 22.7802 53.27C28.5902 56.81 32.7802 61.38 31.1202 69.07C30.4002 72.48 31.7902 74.07 35.7302 74.07C76.1902 73.95 116.65 74.01 157.11 74.07C252.677 74.1367 348.25 74.21 443.83 74.29C453.12 74.29 453.09 74.37 453.47 65.15C453.63 61.1 453.15 57.15 457.47 54.15C468.11 46.73 467.89 46.55 478.77 53.73C481.27 55.38 482.34 57.14 482.3 60.2C482.11 72.68 482.19 85.2 482.22 97.65C482.22 99.58 482.43 101.51 482.54 103.36C490.17 103.86 490.49 103.59 490.8 96.68C491.207 87.7 491.607 78.72 492 69.74C492.15 66.32 493.18 64.32 497.29 64.17C524.73 63.17 552.18 62.17 579.6 60.74C598.55 59.74 617.51 58.64 636.39 56.74C667.844 53.5 699.26 49.92 730.64 46C770.76 41 810.86 35.83 850.87 30C879.66 25.82 908.28 20.4 936.98 15.58C958.649 11.9903 980.019 6.78237 1000.91 0ZM943 668.31C943.83 460.46 944.66 253.24 945.49 45.36C938.65 46.87 932.73 48.36 926.73 49.36C923.46 49.95 922.49 51.43 922.5 54.69C922.55 70.17 922.29 85.64 922.23 101.11C921.877 182.483 921.544 263.857 921.23 345.23C920.817 451.23 920.42 557.23 920.04 663.23V668.23L943 668.31ZM822.94 67.79C822.22 268.337 821.504 468.38 820.79 667.92H843.94C844.71 466.66 845.47 265.7 846.24 63.78L822.94 67.79ZM578.54 666.91C578.68 664.91 578.9 663.14 578.91 661.36C579.01 640.56 579.097 619.763 579.17 598.97C579.23 580.657 579.29 562.347 579.35 544.04C579.41 525.733 579.487 507.423 579.58 489.11C579.67 470.8 579.81 452.5 579.89 434.19C579.97 415.88 579.89 397.57 580.08 379.26C580.31 361.2 580.02 343.15 580.18 325.09C580.58 277.98 580.7 230.88 580.9 183.78C581.02 155.98 581.12 128.183 581.2 100.39C581.2 93.39 581.2 93.39 573.92 93.91C570.77 94.14 567.6 94.56 564.46 94.48C560.14 94.36 558.96 96.08 558.96 100.41C558.96 143.68 558.68 186.96 558.51 230.23C557.93 373.53 557.36 516.83 556.8 660.13C556.8 662.37 557 664.61 557.12 666.91H578.54ZM981.54 35.75C975.66 37.69 970.86 39.53 965.92 40.83C962.67 41.68 961.99 43.4 961.98 46.51C961.76 106.93 961.477 167.35 961.13 227.77C960.83 289.197 960.537 350.623 960.25 412.05C959.81 495.603 959.394 579.153 959 662.7C959 664.46 959.16 666.22 959.24 667.97H979C979.82 457.17 980.67 246.86 981.51 35.75H981.54ZM906.54 668.12C907.34 463.33 908.16 258.75 909 53L889.39 56.12C888.437 260.413 887.487 464.413 886.54 668.12H906.54ZM235.9 106.85C235.9 134.38 235.98 161.16 235.9 187.95C235.6 278.49 235.267 369.03 234.9 459.57C234.78 492.697 234.66 525.82 234.54 558.94C234.354 600.547 234.127 642.153 233.86 683.76C233.86 686.76 234.74 688.05 237.79 687.94C241.453 687.699 245.128 687.699 248.79 687.94C253.16 688.37 254.4 686.94 254.41 682.45C254.65 595.41 254.984 508.363 255.41 421.31C255.83 318.29 256.22 215.267 256.58 112.24C256.58 110.49 256.58 108.73 256.58 106.8L235.9 106.85ZM374.07 105.66C373.31 297.473 372.554 488.843 371.8 679.77H392C392.76 488.223 393.52 296.853 394.28 105.66H374.07ZM426 679.11C426.76 487.82 427.53 297.02 428.29 105.52L408 106.66C407.254 297.74 406.5 488.557 405.74 679.11H426ZM133.52 105.72C132.74 300.573 131.967 495.28 131.2 689.84H150.45C151.244 495 152.034 300.293 152.82 105.72H133.52ZM201.46 105.98C200.687 300.48 199.914 494.857 199.14 689.11H218.4C219.18 494.49 219.967 300.113 220.76 105.98H201.46ZM340.09 105.52C339.364 298.013 338.604 490.373 337.81 682.6H357.09C357.864 490.047 358.634 297.687 359.4 105.52H340.09ZM80.7202 675C81.4802 485.167 82.2402 295.573 83.0002 106.22H63.7502C62.9902 295.9 62.2236 485.493 61.4502 675H80.7202ZM183.5 689C184.294 494.373 185.08 300.017 185.86 105.93H167.49C166.717 300.437 165.944 494.793 165.17 689H183.5ZM543.32 666.77C543.32 664.21 543.32 661.93 543.32 659.65C543.507 621.383 543.694 583.107 543.88 544.82C544.227 461.607 544.56 378.39 544.88 295.17C545.074 243.57 545.247 191.973 545.4 140.38C545.44 126.9 545.487 113.417 545.54 99.93C545.54 97.6 545.93 94.85 542.34 95.06C537.43 95.34 532.54 95.9 527.98 96.31C526.57 286.89 525.16 476.69 523.75 666.77H543.32ZM273.06 106.09C272.3 299.317 271.534 492.273 270.76 684.96H289.14C289.914 491.867 290.684 298.91 291.45 106.09H273.06ZM306.12 106.32C305.36 298.373 304.597 490.373 303.83 682.32H322.19C322.97 490.047 323.747 298.047 324.52 106.32H306.12ZM113.78 674.08C114.54 484.62 115.3 295.39 116.06 106.39H98.6402C97.8802 295.723 97.1169 484.953 96.3502 674.08H113.78ZM874.78 59.17C869.92 60.03 866.51 60.79 863.06 61.17C859.45 61.6 858.06 63.09 858.22 66.99C858.7 83.29 859.04 99.6 858.99 115.91C858.85 158.35 858.39 200.78 858.2 243.22C857.807 334.1 857.474 424.977 857.2 515.85C857.067 559.95 856.914 604.07 856.74 648.21C856.74 654.78 856.74 661.36 856.74 667.87H871.41C872.54 465 873.67 262.53 874.8 59.17H874.78ZM44.0002 674.68C44.7602 485.12 45.5169 295.56 46.2702 106H31.4602C29.9802 295.647 28.4936 485.207 27.0002 674.68H44.0002ZM441.1 106C440.367 297.44 439.61 488.773 438.83 680H453.49C454.257 488.547 455.024 297.24 455.79 106.08L441.1 106ZM590.48 346.8V667.2C596.05 667.2 601.71 667.2 607.36 667.2C611.05 667.2 612.79 665.86 612.76 661.57C612.62 641.28 612.88 620.98 612.97 600.68C613.297 524.793 613.607 448.903 613.9 373.01C613.9 371.56 613.96 369.58 613.11 368.73C606.12 361.76 598.92 355 590.48 346.84V346.8ZM806.67 340.88C800.56 347.33 794.94 352.96 789.72 358.94C788.04 360.865 787.042 363.29 786.88 365.84C786.55 399.63 786.45 433.42 786.3 467.2C786.04 525.953 785.787 584.703 785.54 643.45C785.54 651.55 785.54 659.65 785.54 667.78H806.67V340.88ZM623.22 379.36L621.94 379.72V667.08H642.62C642.71 665.24 642.84 663.61 642.85 661.99C643.01 616.91 643.164 571.83 643.31 526.75C643.464 486.003 643.634 445.25 643.82 404.49C643.82 402.55 644.02 399.94 642.92 398.79C636.55 392.12 629.82 385.8 623.22 379.36ZM502.29 96.07C501.55 286.603 500.81 476.807 500.07 666.68L503.07 666.94C510.44 667.45 510.4 667.45 510.44 660.09C510.694 614.67 510.944 569.247 511.19 523.82C511.564 432.8 511.897 341.783 512.19 250.77C512.35 206.837 512.504 162.907 512.65 118.98C512.65 111.39 512.65 103.81 512.65 96.07H502.29ZM656.51 412.3L655.17 412.82V667.14H676.69C676.78 665.27 676.92 663.65 676.92 662.02C677.21 589.12 677.38 516.21 677.92 443.31C677.97 436.21 676.26 431 670.86 426.42C665.76 422.09 661.27 417 656.51 412.3ZM477.6 638.93C480.85 635.4 483.52 633.05 485.47 630.21C486.95 628.05 488.35 625.28 488.38 622.77C488.77 594.64 488.93 566.51 489.06 538.38C489.38 470.96 489.67 403.543 489.93 336.13C490.27 270.543 490.654 204.957 491.08 139.37C491.018 137.96 490.874 136.554 490.65 135.16C480.36 137.55 480.39 137.55 480.32 146.92C480.18 167.56 479.97 188.2 479.85 208.84C479.41 286.08 478.977 363.317 478.55 440.55C478.25 494.15 477.937 547.75 477.61 601.35C477.54 613.45 477.6 625.54 477.6 638.93ZM807.89 326.25V70.15C802.83 71.15 797.54 72.26 792.23 73.26C788.91 73.89 787.67 75.61 787.8 79.14C788.07 86.61 787.8 94.14 787.8 101.59C787.52 168.31 787.25 235.03 786.99 301.75C786.99 303.35 786.99 305.49 787.88 306.46C794.08 312.87 800.53 319 807.89 326.25ZM739.39 408C734.04 413.57 729.55 418.71 724.54 423.27C722.975 424.586 721.734 426.245 720.912 428.118C720.09 429.99 719.71 432.027 719.8 434.07C719.614 510.43 719.354 586.787 719.02 663.14C719.02 664.57 719.22 666 719.33 667.45H739.39V408ZM591.26 318L593.17 319.3C598.34 313.72 603.24 307.85 608.77 302.65C612.85 298.82 614.37 294.82 614.37 289.18C614.37 233.46 614.72 177.73 614.95 122C614.95 112.41 614.95 102.81 614.95 93C607.72 93 601.1 92.87 594.5 93.16C593.66 93.16 592.27 95.35 592.22 96.57C591.83 105.57 591.56 114.57 591.54 123.49C591.4 178.71 591.31 233.933 591.27 289.16C591.25 298.76 591.247 308.373 591.26 318ZM770.64 378.79L769.54 378C765.68 382.12 761.54 386 758.06 390.43C756.28 392.68 754.69 395.84 754.66 398.61C754.29 440.05 754.2 481.49 754.04 522.94C753.92 553.893 753.794 584.84 753.66 615.78C753.59 631.78 753.42 647.78 753.5 663.71C753.5 665.2 754.93 667.88 755.89 667.97C760.59 668.41 765.35 668.17 770.64 668.17V378.79ZM645.38 90.31C639.04 90.89 633.6 91.55 628.13 91.83C624.93 91.99 623.8 93.26 623.85 96.43C623.95 103.09 623.69 109.74 623.65 116.43C623.35 167.183 623.064 217.937 622.79 268.69C622.79 274.75 622.79 280.82 622.79 286.89L624.34 287.69C630.19 281.69 636.15 275.69 641.79 269.5C643.25 267.825 644.121 265.717 644.27 263.5C644.67 249.7 644.85 235.89 644.92 222.09C645.12 183.65 645.27 145.207 645.37 106.76C645.39 101.43 645.38 96.15 645.38 90.31ZM690.26 446.55L688.94 447.09V667.25H706.38V442.31L705.38 441.31L696.85 452.31L690.26 446.55ZM656.09 253.88L657.88 254.75C663.61 248.75 669.23 242.6 675.11 236.75C676.261 235.708 677.17 234.427 677.773 232.997C678.376 231.566 678.658 230.021 678.6 228.47C678.427 182.903 678.337 137.33 678.33 91.75C678.33 90.16 678.16 88.58 678.05 86.61C672.33 87.16 667.22 87.85 662.1 88.07C658.1 88.25 656.89 89.89 656.88 93.92C656.72 145.16 656.46 196.4 656.1 247.64C656.08 249.7 656.09 251.79 656.09 253.88ZM771.52 289.88V75.76C767.52 76.13 763.92 76.68 760.29 76.76C756.88 76.82 755.8 78.16 755.79 81.6C755.61 144.353 755.374 207.107 755.08 269.86C755.08 271.45 755.18 273.52 756.08 274.53C760.75 279.48 765.67 284.14 771.52 289.92V289.88ZM721.23 81.62C721.23 83.56 721.23 85.04 721.23 86.51C721.04 134.75 720.94 182.99 720.54 231.22C720.54 236.84 721.83 240.98 726.13 244.68C730.94 248.81 735.13 253.61 739.63 258.12L740.8 257.46V79.25L721.23 81.62ZM691 85.21V220.39L698.27 214.39C701.04 218.12 703.78 221.81 706.53 225.49L707.97 224.57V83.21L691 85.21ZM219.26 90C219.275 88.9613 219.084 87.93 218.699 86.9653C218.314 86.0005 217.742 85.1213 217.017 84.378C216.291 83.6347 215.426 83.042 214.471 82.6339C213.515 82.2259 212.489 82.0104 211.45 82C210.452 82.0079 209.465 82.2123 208.546 82.6015C207.627 82.9907 206.794 83.5571 206.094 84.2684C205.394 84.9797 204.84 85.822 204.466 86.747C204.091 87.6721 203.902 88.662 203.91 89.66C203.918 90.658 204.122 91.6448 204.512 92.5638C204.901 93.4829 205.467 94.3163 206.179 95.0164C206.89 95.7166 207.732 96.2698 208.657 96.6444C209.582 97.0191 210.572 97.2079 211.57 97.2C216.43 97.17 219.27 94.52 219.26 90ZM184.83 90C184.882 88.9893 184.731 87.9785 184.386 87.0269C184.042 86.0753 183.511 85.2021 182.824 84.4586C182.138 83.715 181.309 83.116 180.388 82.6968C179.467 82.2775 178.472 82.0465 177.46 82.0172C176.448 81.9879 175.441 82.1609 174.497 82.5261C173.554 82.8913 172.692 83.4414 171.964 84.144C171.235 84.8466 170.655 85.6875 170.256 86.6176C169.857 87.5476 169.647 88.548 169.64 89.56C169.605 90.6032 169.781 91.6427 170.158 92.616C170.535 93.5892 171.105 94.4762 171.834 95.2236C172.563 95.9709 173.435 96.5631 174.398 96.9647C175.362 97.3662 176.397 97.5687 177.44 97.56C182 97.61 184.72 94.79 184.83 90ZM764.47 69.19C765.47 69.1745 766.457 68.9605 767.374 68.5603C768.291 68.1601 769.119 67.5818 769.81 66.8588C770.501 66.1359 771.042 65.2828 771.401 64.3492C771.76 63.4155 771.93 62.4198 771.9 61.42C771.807 59.3987 770.93 57.4933 769.455 56.1081C767.98 54.7228 766.023 53.9666 764 54C761.983 54.0782 760.076 54.9458 758.692 56.416C757.308 57.8862 756.557 59.8412 756.6 61.86C756.618 62.8637 756.837 63.8536 757.246 64.7706C757.654 65.6876 758.243 66.5129 758.978 67.1971C759.713 67.8813 760.577 68.4104 761.521 68.7528C762.465 69.0952 763.468 69.2439 764.47 69.19ZM941.21 33C941.233 30.9844 940.454 29.0423 939.044 27.6011C937.635 26.1599 935.711 25.3375 933.695 25.315C931.68 25.2925 929.738 26.0715 928.296 27.4809C926.855 28.8902 926.033 30.8144 926.01 32.83C925.999 33.828 926.185 34.8185 926.556 35.7449C926.928 36.6712 927.478 37.5153 928.176 38.2289C929.585 39.6701 931.51 40.4925 933.525 40.515C935.541 40.5375 937.483 39.7585 938.924 38.3491C939.638 37.6513 940.207 36.8197 940.599 35.9019C940.991 34.9841 941.199 33.998 941.21 33ZM382.42 688.3C380.403 688.362 378.489 689.207 377.084 690.655C375.679 692.104 374.892 694.042 374.89 696.06C374.91 697.576 375.38 699.052 376.239 700.301C377.099 701.55 378.31 702.516 379.718 703.077C381.127 703.637 382.671 703.767 384.153 703.449C385.636 703.132 386.991 702.381 388.047 701.293C389.103 700.205 389.812 698.828 390.085 697.337C390.357 695.845 390.181 694.306 389.579 692.915C388.976 691.524 387.974 690.342 386.7 689.521C385.426 688.699 383.936 688.274 382.42 688.3ZM350.59 98.17C352.591 98.1736 354.514 97.3976 355.951 96.0066C357.389 94.6157 358.228 92.7194 358.29 90.72C358.306 89.6926 358.113 88.6728 357.723 87.722C357.334 86.7712 356.756 85.9092 356.024 85.1878C355.292 84.4664 354.422 83.9007 353.466 83.5247C352.51 83.1487 351.487 82.9702 350.46 83C349.461 83.0085 348.473 83.2138 347.553 83.6041C346.633 83.9945 345.799 84.5622 345.098 85.2749C344.398 85.9876 343.844 86.8313 343.47 87.7578C343.095 88.6844 342.907 89.6756 342.915 90.675C342.924 91.6744 343.129 92.6623 343.519 93.5823C343.91 94.5023 344.477 95.3364 345.19 96.037C345.903 96.7377 346.746 97.291 347.673 97.6656C348.6 98.0401 349.591 98.2285 350.59 98.22V98.17ZM762 689.26C763.501 689.291 764.976 688.877 766.241 688.07C767.506 687.263 768.504 686.099 769.107 684.725C769.711 683.351 769.894 681.829 769.633 680.351C769.372 678.874 768.678 677.506 767.641 676.423C766.603 675.339 765.267 674.587 763.802 674.262C762.337 673.937 760.809 674.053 759.41 674.597C758.011 675.14 756.805 676.086 755.943 677.315C755.082 678.543 754.604 680 754.57 681.5C754.533 683.513 755.293 685.458 756.685 686.912C758.077 688.366 759.988 689.21 762 689.26ZM567.9 70.26C566.395 70.2345 564.917 70.6558 563.651 71.4706C562.386 72.2854 561.391 73.4571 560.791 74.8375C560.192 76.218 560.015 77.7452 560.283 79.2261C560.552 80.707 561.253 82.0751 562.299 83.1573C563.345 84.2395 564.688 84.9873 566.159 85.3062C567.63 85.625 569.162 85.5006 570.563 84.9486C571.963 84.3965 573.168 83.4418 574.025 82.2049C574.883 80.9681 575.354 79.5048 575.38 78C575.393 76.9985 575.209 76.0042 574.838 75.074C574.466 74.1437 573.915 73.2959 573.216 72.5789C572.516 71.8618 571.683 71.2897 570.762 70.8953C569.841 70.5008 568.852 70.2917 567.85 70.28L567.9 70.26ZM76.2102 689.39C76.2201 687.871 75.778 686.383 74.9401 685.116C74.1023 683.848 72.9065 682.859 71.5047 682.273C70.103 681.687 68.5588 681.531 67.0682 681.825C65.5777 682.119 64.2082 682.849 63.1339 683.924C62.0597 684.998 61.3291 686.367 61.0351 687.858C60.7412 689.349 60.8971 690.893 61.483 692.294C62.069 693.696 63.0585 694.892 64.3258 695.73C65.5932 696.568 67.081 697.01 68.6002 697C70.5963 696.93 72.4918 696.106 73.9041 694.694C75.3164 693.282 76.1406 691.386 76.2102 689.39ZM115.41 89.61C115.461 87.5913 114.71 85.6346 113.321 84.1688C111.932 82.703 110.019 81.8476 108 81.79C105.982 81.7485 104.027 82.4949 102.551 83.8708C101.074 85.2468 100.191 87.1441 100.09 89.16C100.074 90.2015 100.265 91.2358 100.652 92.2032C101.038 93.1705 101.612 94.0516 102.341 94.7955C103.07 95.5395 103.94 96.1315 104.899 96.5374C105.858 96.9432 106.889 97.1548 107.93 97.16C112.33 97.19 115.33 94.17 115.41 89.61ZM81.0902 90C81.1339 88.4856 80.7252 86.9925 79.9163 85.7115C79.1074 84.4305 77.9349 83.4197 76.5488 82.8082C75.1626 82.1968 73.6256 82.0124 72.1341 82.2787C70.6427 82.545 69.2644 83.2498 68.1755 84.3032C67.0865 85.3565 66.3363 86.7106 66.0206 88.1924C65.705 89.6742 65.8382 91.2164 66.4033 92.6222C66.9683 94.0279 67.9396 95.2333 69.1931 96.0843C70.4465 96.9353 71.9252 97.3934 73.4402 97.4C74.4325 97.4322 75.4211 97.2646 76.3473 96.9073C77.2736 96.5499 78.1186 96.0101 78.8321 95.3199C79.5457 94.6296 80.1133 93.803 80.5012 92.8891C80.8891 91.9753 81.0894 90.9928 81.0902 90ZM903.57 40.14C903.542 38.142 902.754 36.2298 901.367 34.792C899.979 33.3543 898.096 32.4989 896.1 32.4C894.099 32.3842 892.169 33.1403 890.71 34.511C889.252 35.8817 888.378 37.7616 888.27 39.76C888.245 40.7646 888.418 41.7643 888.78 42.702C889.141 43.6397 889.684 44.497 890.377 45.225C891.069 45.953 891.899 46.5375 892.817 46.945C893.736 47.3525 894.726 47.5751 895.73 47.6C896.735 47.625 897.735 47.4518 898.672 47.0904C899.61 46.729 900.467 46.1864 901.195 45.4937C901.923 44.801 902.508 43.9717 902.915 43.0531C903.323 42.1345 903.545 41.1446 903.57 40.14ZM673.24 681.32C673.233 679.306 672.444 677.374 671.039 675.932C669.634 674.489 667.723 673.65 665.71 673.59C664.196 673.566 662.708 673.993 661.436 674.815C660.165 675.638 659.165 676.819 658.566 678.21C657.966 679.601 657.793 681.139 658.068 682.628C658.343 684.118 659.054 685.492 660.111 686.577C661.168 687.662 662.523 688.409 664.005 688.723C665.487 689.037 667.028 688.904 668.434 688.341C669.84 687.778 671.048 686.81 671.903 685.56C672.759 684.31 673.224 682.835 673.24 681.32ZM112.84 688.72C112.762 686.72 111.904 684.83 110.45 683.454C108.996 682.079 107.062 681.327 105.06 681.36C104.07 681.354 103.088 681.548 102.174 681.928C101.259 682.309 100.431 682.869 99.7369 683.576C99.0431 684.283 98.4982 685.122 98.1346 686.044C97.771 686.965 97.5961 687.95 97.6202 688.94C97.6347 689.939 97.8458 690.926 98.2416 691.844C98.6374 692.762 99.21 693.592 99.9269 694.289C100.644 694.985 101.491 695.534 102.42 695.903C103.348 696.272 104.341 696.454 105.34 696.44C106.34 696.426 107.326 696.214 108.244 695.819C109.162 695.423 109.993 694.85 110.689 694.133C111.386 693.416 111.934 692.569 112.303 691.641C112.672 690.712 112.855 689.719 112.84 688.72ZM698.51 75.1C700.526 75.0695 702.447 74.2395 703.851 72.7927C705.254 71.3459 706.026 69.4006 705.995 67.385C705.965 65.3694 705.135 63.4484 703.688 62.0447C702.241 60.641 700.296 59.8695 698.28 59.9C697.282 59.9151 696.297 60.1266 695.381 60.5225C694.464 60.9184 693.635 61.4909 692.94 62.2073C691.536 63.6541 690.765 65.5994 690.795 67.615C690.826 69.6306 691.656 71.5516 693.103 72.9553C694.549 74.359 696.495 75.1305 698.51 75.1ZM832.26 674.34C830.245 674.284 828.289 675.032 826.825 676.417C825.36 677.803 824.506 679.714 824.45 681.73C824.395 683.746 825.142 685.701 826.528 687.166C827.914 688.63 829.825 689.484 831.84 689.54C833.858 689.576 835.81 688.826 837.284 687.449C838.758 686.072 839.639 684.175 839.74 682.16C839.725 680.149 838.942 678.219 837.552 676.766C836.162 675.312 834.269 674.444 832.26 674.34ZM968.92 673.2C967.905 673.199 966.901 673.401 965.965 673.794C965.029 674.187 964.182 674.764 963.473 675.49C962.764 676.216 962.208 677.077 961.837 678.022C961.466 678.966 961.288 679.976 961.313 680.99C961.338 682.005 961.567 683.004 961.984 683.929C962.402 684.854 963.001 685.685 963.745 686.375C964.49 687.065 965.365 687.598 966.319 687.944C967.273 688.291 968.287 688.442 969.3 688.39C970.303 688.379 971.293 688.167 972.213 687.768C973.133 687.368 973.963 686.789 974.656 686.065C975.35 685.34 975.891 684.484 976.249 683.548C976.606 682.611 976.774 681.612 976.74 680.61C976.714 679.61 976.491 678.624 976.084 677.71C975.677 676.796 975.093 675.971 974.367 675.283C973.641 674.595 972.786 674.057 971.851 673.699C970.916 673.342 969.921 673.172 968.92 673.2ZM641.43 73C641.43 71.9997 641.231 71.0094 640.844 70.0872C640.457 69.1649 639.889 68.3291 639.175 67.6288C638.461 66.9285 637.614 66.3778 636.684 66.0088C635.754 65.6398 634.76 65.4601 633.76 65.48C631.742 65.5221 629.822 66.3603 628.419 67.812C627.016 69.2638 626.243 71.2113 626.27 73.23C626.355 75.2308 627.203 77.123 628.642 78.5165C630.08 79.91 631.998 80.6987 634 80.72C634.999 80.7152 635.987 80.5101 636.905 80.1168C637.824 79.7234 638.654 79.1499 639.347 78.4301C640.039 77.7103 640.581 76.8589 640.939 75.9262C641.297 74.9935 641.464 73.9985 641.43 73ZM290 91.35C289.999 90.348 289.798 89.3563 289.408 88.4331C289.018 87.51 288.448 86.674 287.731 85.9744C287.013 85.2748 286.164 84.7255 285.231 84.359C284.298 83.9925 283.302 83.816 282.3 83.84C280.801 83.8618 279.341 84.3275 278.106 85.1781C276.87 86.0288 275.915 87.2264 275.36 88.6197C274.805 90.013 274.675 91.5395 274.986 93.0066C275.298 94.4737 276.037 95.8155 277.111 96.8628C278.185 97.91 279.545 98.6156 281.019 98.8906C282.494 99.1655 284.016 98.9975 285.395 98.4077C286.774 97.8179 287.948 96.8327 288.767 95.5766C289.587 94.3205 290.016 92.8497 290 91.35ZM180.31 704.65C180.365 702.613 179.608 700.638 178.206 699.159C176.804 697.681 174.872 696.819 172.835 696.765C170.798 696.711 168.823 697.468 167.345 698.869C165.866 700.271 165.005 702.203 164.95 704.24C164.896 706.277 165.653 708.252 167.055 709.731C168.457 711.209 170.388 712.071 172.425 712.125C174.462 712.179 176.437 711.422 177.916 710.021C179.395 708.619 180.256 706.687 180.31 704.65ZM216.45 704.38C216.417 702.863 215.933 701.391 215.06 700.15C214.187 698.909 212.965 697.956 211.548 697.413C210.132 696.87 208.586 696.76 207.107 697.099C205.628 697.438 204.284 698.209 203.245 699.314C202.206 700.42 201.519 701.81 201.273 703.307C201.027 704.804 201.232 706.34 201.862 707.72C202.493 709.1 203.519 710.261 204.812 711.055C206.105 711.85 207.604 712.241 209.12 712.18C211.125 712.112 213.021 711.254 214.394 709.792C215.768 708.331 216.507 706.385 216.45 704.38ZM426 90.12C426.008 89.1258 425.818 88.14 425.442 87.2198C425.065 86.2996 424.51 85.4635 423.807 84.76C423.105 84.0566 422.269 83.4998 421.35 83.1221C420.43 82.7444 419.444 82.5533 418.45 82.56C417.415 82.5377 416.386 82.7267 415.426 83.1155C414.466 83.5042 413.595 84.0846 412.867 84.8212C412.139 85.5577 411.569 86.4349 411.191 87.3993C410.813 88.3636 410.636 89.3949 410.67 90.43C410.835 92.4165 411.735 94.2701 413.194 95.6277C414.653 96.9854 416.567 97.7494 418.56 97.77C419.552 97.7583 420.531 97.5509 421.442 97.1597C422.353 96.7685 423.178 96.2012 423.869 95.4904C424.561 94.7796 425.105 93.9393 425.47 93.0177C425.836 92.0961 426.016 91.1114 426 90.12ZM392.92 90.2C392.93 89.2057 392.739 88.2198 392.358 87.3014C391.977 86.383 391.414 85.5513 390.703 84.8562C389.992 84.1611 389.148 83.617 388.221 83.2568C387.294 82.8966 386.304 82.7276 385.31 82.76C383.309 82.7333 381.378 83.5015 379.942 84.8963C378.506 86.291 377.682 88.1984 377.65 90.2C377.646 91.2329 377.849 92.2561 378.249 93.2086C378.648 94.1611 379.236 95.0234 379.976 95.7439C380.716 96.4644 381.594 97.0284 382.557 97.4023C383.519 97.7762 384.548 97.9522 385.58 97.92C386.572 97.9074 387.551 97.6962 388.46 97.2987C389.368 96.9013 390.188 96.3257 390.871 95.606C391.553 94.8863 392.084 94.0371 392.433 93.1085C392.781 92.18 392.94 91.191 392.9 90.2H392.92ZM970 17.56C968.999 17.5266 968.002 17.6908 967.065 18.0432C966.127 18.3957 965.269 18.9294 964.538 19.6138C963.807 20.2983 963.218 21.1201 962.805 22.0323C962.392 22.9445 962.163 23.9292 962.13 24.93C962.089 26.952 962.84 28.91 964.222 30.386C965.605 31.862 967.51 32.7391 969.53 32.83C971.548 32.8432 973.494 32.0786 974.963 30.695C976.432 29.3115 977.312 27.4152 977.42 25.4C977.456 23.3821 976.698 21.4307 975.311 19.9649C973.924 18.499 972.017 17.6356 970 17.56ZM150.8 89.61C150.848 88.593 150.692 87.5766 150.339 86.6215C149.986 85.6663 149.445 84.7919 148.747 84.0503C148.05 83.3086 147.21 82.7149 146.278 82.3044C145.347 81.894 144.342 81.6752 143.324 81.6611C142.306 81.647 141.295 81.8379 140.352 82.2224C139.41 82.6069 138.554 83.1771 137.836 83.8992C137.118 84.6213 136.553 85.4804 136.174 86.4254C135.795 87.3704 135.61 88.382 135.63 89.4C135.589 90.3896 135.742 91.3776 136.083 92.3077C136.423 93.2378 136.943 94.0918 137.614 94.8208C138.284 95.5497 139.092 96.1395 139.99 96.5563C140.889 96.9731 141.861 97.2088 142.85 97.25C143.886 97.3185 144.924 97.1703 145.899 96.8147C146.874 96.4592 147.764 95.9042 148.512 95.1851C149.26 94.4661 149.85 93.5989 150.244 92.6389C150.638 91.6789 150.828 90.6473 150.8 89.61ZM312.3 706.25C314.323 706.261 316.268 705.469 317.707 704.048C319.147 702.627 319.964 700.693 319.98 698.67C319.987 697.669 319.795 696.676 319.414 695.75C319.034 694.824 318.474 693.982 317.766 693.274C317.058 692.566 316.217 692.006 315.29 691.626C314.364 691.246 313.371 691.053 312.37 691.06C311.35 691.019 310.332 691.183 309.377 691.544C308.421 691.905 307.549 692.454 306.811 693.16C306.072 693.865 305.484 694.712 305.081 695.65C304.677 696.588 304.467 697.598 304.462 698.619C304.457 699.64 304.658 700.651 305.053 701.593C305.448 702.535 306.029 703.387 306.76 704.099C307.492 704.811 308.359 705.369 309.311 705.739C310.263 706.108 311.28 706.282 312.3 706.25ZM863.19 673.67C861.161 673.695 859.226 674.525 857.809 675.978C856.392 677.43 855.61 679.386 855.635 681.415C855.66 683.444 856.491 685.38 857.943 686.797C859.396 688.213 861.351 688.995 863.38 688.97C865.409 688.945 867.345 688.115 868.762 686.662C870.179 685.21 870.96 683.254 870.935 681.225C870.91 679.196 870.08 677.26 868.627 675.843C867.175 674.427 865.219 673.645 863.19 673.67ZM704.19 682.16C704.265 681.124 704.128 680.083 703.785 679.102C703.443 678.121 702.903 677.22 702.2 676.456C701.496 675.691 700.644 675.079 699.694 674.657C698.745 674.234 697.719 674.011 696.68 674C695.641 673.989 694.611 674.191 693.653 674.593C692.695 674.995 691.83 675.59 691.11 676.339C690.391 677.089 689.832 677.978 689.469 678.951C689.107 679.925 688.947 680.962 689 682C688.976 682.998 689.153 683.99 689.519 684.918C689.886 685.846 690.436 686.691 691.135 687.403C691.835 688.114 692.67 688.678 693.592 689.061C694.513 689.443 695.502 689.637 696.5 689.63C697.495 689.647 698.483 689.467 699.408 689.1C700.333 688.733 701.175 688.187 701.888 687.492C702.6 686.797 703.167 685.969 703.558 685.053C703.948 684.138 704.152 683.155 704.16 682.16H704.19ZM802.98 681.87C802.959 679.855 802.148 677.928 800.721 676.505C799.294 675.082 797.366 674.276 795.35 674.26C794.353 674.251 793.363 674.44 792.44 674.818C791.517 675.196 790.678 675.754 789.973 676.46C789.268 677.166 788.711 678.005 788.335 678.929C787.958 679.853 787.77 680.842 787.78 681.84C787.753 682.839 787.929 683.834 788.298 684.763C788.666 685.693 789.22 686.538 789.925 687.246C790.63 687.955 791.472 688.513 792.4 688.887C793.327 689.261 794.321 689.442 795.32 689.42C796.322 689.436 797.317 689.252 798.248 688.88C799.178 688.508 800.026 687.955 800.74 687.252C801.455 686.55 802.023 685.712 802.411 684.788C802.799 683.864 802.999 682.872 803 681.87H802.98ZM902.76 681.33C902.662 679.32 901.781 677.429 900.307 676.059C898.833 674.69 896.882 673.951 894.87 674C893.874 674.034 892.893 674.264 891.985 674.677C891.078 675.09 890.26 675.678 889.579 676.407C888.899 677.136 888.368 677.992 888.018 678.926C887.669 679.86 887.506 680.853 887.54 681.85C887.574 682.847 887.804 683.827 888.217 684.735C888.63 685.643 889.218 686.46 889.947 687.141C890.676 687.821 891.532 688.352 892.466 688.702C893.4 689.052 894.394 689.214 895.39 689.18C897.393 689.079 899.278 688.204 900.648 686.739C902.017 685.275 902.764 683.335 902.73 681.33H902.76ZM286.66 700.17C286.608 698.671 286.114 697.22 285.239 696.001C284.364 694.782 283.148 693.85 281.745 693.321C280.341 692.792 278.812 692.69 277.35 693.029C275.888 693.367 274.56 694.13 273.531 695.223C272.503 696.315 271.821 697.687 271.571 699.167C271.321 700.646 271.515 702.166 272.127 703.536C272.74 704.905 273.744 706.063 275.013 706.863C276.283 707.662 277.76 708.069 279.26 708.03C281.272 707.942 283.169 707.07 284.546 705.601C285.923 704.132 286.671 702.183 286.63 700.17H286.66ZM872.4 45.52C872.408 43.505 871.619 41.5686 870.204 40.1335C868.79 38.6984 866.865 37.8811 864.85 37.86C862.837 37.8647 860.905 38.6556 859.467 40.0641C858.029 41.4726 857.197 43.3873 857.15 45.4C857.153 47.4114 857.952 49.3399 859.372 50.764C860.792 52.1882 862.719 52.9921 864.73 53C865.727 53.0213 866.719 52.8437 867.646 52.4777C868.574 52.1117 869.42 51.5646 870.134 50.8683C870.848 50.1719 871.416 49.3404 871.805 48.4221C872.194 47.5039 872.397 46.5173 872.4 45.52ZM314.79 83.52C313.798 83.4785 312.808 83.6347 311.877 83.9794C310.946 84.3241 310.093 84.8505 309.367 85.5279C308.641 86.2053 308.057 87.0202 307.649 87.9253C307.241 88.8304 307.017 89.8076 306.99 90.8C306.889 92.8094 307.586 94.7774 308.929 96.2757C310.271 97.774 312.152 98.6812 314.16 98.8C315.19 98.8428 316.219 98.6796 317.185 98.32C318.151 97.9603 319.036 97.4115 319.788 96.7056C320.539 95.9997 321.143 95.1509 321.562 94.2089C321.981 93.267 322.208 92.2509 322.23 91.22C322.249 90.2265 322.071 89.2391 321.706 88.3146C321.342 87.3901 320.798 86.5468 320.107 85.8331C319.416 85.1193 318.59 84.5493 317.678 84.1558C316.765 83.7623 315.784 83.553 314.79 83.54V83.52ZM538.72 681.72C538.751 680.722 538.581 679.729 538.221 678.798C537.86 677.868 537.316 677.019 536.621 676.303C535.926 675.586 535.095 675.017 534.175 674.628C533.256 674.24 532.268 674.04 531.27 674.04C530.252 673.992 529.234 674.15 528.278 674.503C527.321 674.857 526.446 675.399 525.703 676.098C524.961 676.797 524.367 677.639 523.956 678.572C523.546 679.506 523.328 680.512 523.314 681.532C523.301 682.551 523.493 683.563 523.878 684.507C524.264 685.451 524.836 686.307 525.56 687.026C526.283 687.744 527.144 688.309 528.091 688.688C529.038 689.067 530.051 689.251 531.07 689.23C532.068 689.253 533.059 689.076 533.987 688.709C534.915 688.343 535.76 687.795 536.473 687.097C537.186 686.399 537.752 685.565 538.138 684.645C538.524 683.725 538.722 682.738 538.72 681.74V681.72ZM737.11 681.72C737.101 679.705 736.311 677.772 734.907 676.327C733.503 674.882 731.594 674.037 729.58 673.97C728.581 673.957 727.589 674.141 726.662 674.513C725.734 674.885 724.89 675.437 724.177 676.137C723.464 676.837 722.896 677.672 722.507 678.592C722.118 679.512 721.915 680.501 721.91 681.5C721.871 682.499 722.035 683.496 722.391 684.431C722.746 685.366 723.288 686.219 723.982 686.939C724.676 687.659 725.508 688.231 726.429 688.622C727.35 689.012 728.34 689.212 729.34 689.21C731.362 689.224 733.309 688.444 734.762 687.038C736.215 685.631 737.058 683.711 737.11 681.69V681.72ZM666.69 62.81C665.693 62.8304 664.709 63.047 663.796 63.4475C662.882 63.8479 662.056 64.4245 661.365 65.1441C660.674 65.8638 660.132 66.7125 659.769 67.6417C659.406 68.571 659.23 69.5626 659.25 70.56C659.271 71.5574 659.487 72.541 659.888 73.4547C660.288 74.3684 660.865 75.1942 661.584 75.8851C662.304 76.5759 663.153 77.1183 664.082 77.4812C665.011 77.8441 666.003 78.0204 667 78C667.997 77.981 668.98 77.7658 669.894 77.3668C670.807 76.9677 671.633 76.3927 672.325 75.6744C673.016 74.9561 673.559 74.1088 673.923 73.1806C674.287 72.2525 674.464 71.2617 674.445 70.265C674.426 69.2683 674.211 68.285 673.812 67.3715C673.413 66.4579 672.838 65.6319 672.12 64.9405C671.401 64.2492 670.554 63.7061 669.626 63.3423C668.698 62.9784 667.707 62.801 666.71 62.82L666.69 62.81ZM41.3902 690C41.3902 688.999 41.1931 688.008 40.8102 687.084C40.4272 686.159 39.866 685.319 39.1584 684.612C38.4508 683.904 37.6108 683.343 36.6863 682.96C35.7618 682.577 34.7709 682.38 33.7702 682.38C32.7695 682.38 31.7787 682.577 30.8542 682.96C29.9297 683.343 29.0897 683.904 28.3821 684.612C27.6745 685.319 27.1132 686.159 26.7303 687.084C26.3473 688.008 26.1502 688.999 26.1502 690C26.1502 692.021 26.953 693.959 28.3821 695.388C29.8111 696.817 31.7493 697.62 33.7702 697.62C35.7912 697.62 37.7293 696.817 39.1584 695.388C40.5874 693.959 41.3902 692.021 41.3902 690ZM423.59 695.33C423.54 693.312 422.693 691.395 421.232 690C419.772 688.606 417.819 687.847 415.8 687.89C414.799 687.901 413.811 688.113 412.893 688.512C411.975 688.911 411.146 689.489 410.454 690.213C409.763 690.937 409.224 691.792 408.867 692.727C408.511 693.662 408.345 694.66 408.38 695.66C408.373 696.678 408.57 697.687 408.959 698.628C409.348 699.568 409.923 700.421 410.648 701.135C411.373 701.85 412.234 702.412 413.18 702.788C414.126 703.164 415.137 703.346 416.155 703.324C417.173 703.302 418.176 703.076 419.105 702.659C420.033 702.243 420.869 701.644 421.562 700.899C422.256 700.153 422.792 699.276 423.141 698.32C423.489 697.363 423.642 696.347 423.59 695.33ZM46.1702 90.21C46.1733 88.2111 45.4097 86.287 44.0368 84.8341C42.6639 83.3812 40.7861 82.5101 38.7902 82.4C36.7888 82.3476 34.8459 83.0778 33.3744 84.4353C31.9029 85.7929 31.0189 87.6709 30.9102 89.67C30.8413 90.7012 30.9862 91.7356 31.3359 92.7081C31.6856 93.6807 32.2326 94.5705 32.9424 95.3217C33.6523 96.0729 34.5097 96.6692 35.461 97.0733C36.4122 97.4774 37.4367 97.6806 38.4702 97.67C40.4677 97.6585 42.3836 96.8762 43.8183 95.4863C45.2529 94.0963 46.0955 92.2061 46.1702 90.21ZM565.48 689.11C566.481 689.149 567.479 688.988 568.416 688.638C569.354 688.288 570.213 687.755 570.944 687.071C571.674 686.386 572.261 685.563 572.671 684.65C573.08 683.736 573.305 682.751 573.33 681.75C573.382 679.742 572.643 677.794 571.271 676.325C569.9 674.857 568.007 673.986 566 673.9C564.004 673.869 562.076 674.624 560.631 676.001C559.186 677.379 558.34 679.269 558.276 681.264C558.212 683.259 558.934 685.2 560.287 686.668C561.64 688.135 563.516 689.012 565.51 689.11H565.48ZM250.8 701.94C250.845 700.437 250.443 698.955 249.646 697.681C248.848 696.407 247.691 695.398 246.319 694.781C244.948 694.165 243.425 693.969 241.943 694.219C240.46 694.468 239.085 695.151 237.991 696.182C236.897 697.214 236.133 698.546 235.797 700.011C235.46 701.476 235.565 703.008 236.099 704.413C236.633 705.818 237.572 707.034 238.797 707.905C240.022 708.777 241.478 709.266 242.98 709.31C243.98 709.35 244.978 709.19 245.916 708.84C246.853 708.489 247.711 707.955 248.439 707.269C249.168 706.582 249.752 705.757 250.157 704.842C250.562 703.927 250.781 702.941 250.8 701.94ZM598.8 689.53C599.819 689.541 600.83 689.347 601.772 688.96C602.715 688.573 603.57 688.001 604.287 687.277C605.004 686.553 605.569 685.693 605.947 684.747C606.326 683.801 606.51 682.789 606.49 681.77C606.47 680.752 606.246 679.747 605.83 678.817C605.415 677.887 604.817 677.05 604.072 676.355C603.326 675.66 602.449 675.122 601.492 674.772C600.535 674.423 599.518 674.269 598.5 674.32C596.525 674.419 594.665 675.284 593.316 676.731C591.967 678.177 591.234 680.093 591.273 682.07C591.312 684.048 592.12 685.933 593.525 687.326C594.93 688.718 596.822 689.509 598.8 689.53ZM610.2 76.13C610.186 74.1117 609.37 72.1819 607.932 70.765C606.495 69.3482 604.554 68.5604 602.535 68.575C600.517 68.5896 598.587 69.4053 597.17 70.8428C595.753 72.2803 594.966 74.2217 594.98 76.24C595.022 78.2527 595.848 80.1695 597.283 81.5818C598.718 82.994 600.647 83.79 602.66 83.8C604.68 83.7841 606.612 82.9678 608.031 81.5299C609.45 80.0921 610.241 78.1502 610.23 76.13H610.2ZM729.9 56.05C727.884 56.0576 725.951 56.8558 724.517 58.2732C723.083 59.6905 722.262 61.6139 722.23 63.63C722.212 65.6466 722.994 67.5882 724.406 69.0282C725.818 70.4682 727.744 71.2889 729.76 71.31C730.762 71.3192 731.756 71.1309 732.685 70.756C733.615 70.381 734.461 69.8267 735.176 69.1247C735.891 68.4227 736.461 67.5867 736.853 66.6645C737.245 65.7423 737.451 64.752 737.46 63.75C737.469 62.748 737.281 61.754 736.906 60.8248C736.531 59.8956 735.977 59.0493 735.275 58.3343C734.573 57.6193 733.737 57.0495 732.815 56.6576C731.893 56.2656 730.902 56.0592 729.9 56.05ZM246.9 82.62C245.399 82.6025 243.927 83.0298 242.669 83.8479C241.41 84.6661 240.422 85.8386 239.83 87.2174C239.237 88.5963 239.065 90.1199 239.337 91.596C239.609 93.0721 240.312 94.4346 241.357 95.5118C242.402 96.589 243.743 97.3326 245.21 97.6489C246.678 97.9651 248.206 97.8398 249.602 97.2888C250.998 96.7378 252.199 95.7857 253.055 94.5526C253.911 93.3195 254.382 91.8607 254.41 90.36C254.429 88.3411 253.651 86.3962 252.245 84.9472C250.839 83.4982 248.919 82.662 246.9 82.62ZM804.74 56.41C804.715 54.3957 803.926 52.4661 802.531 51.0123C801.137 49.5584 799.242 48.6889 797.23 48.58C795.207 48.5296 793.246 49.2852 791.779 50.6804C790.313 52.0757 789.461 53.9964 789.41 56.02C789.36 58.0436 790.115 60.0043 791.511 61.4709C792.906 62.9374 794.827 63.7896 796.85 63.84C798.865 63.8434 800.806 63.0756 802.273 61.694C803.74 60.3124 804.623 58.4218 804.74 56.41ZM630.74 689.57C632.238 689.595 633.71 689.176 634.97 688.366C636.23 687.555 637.222 686.389 637.819 685.015C638.417 683.642 638.594 682.121 638.329 680.647C638.063 679.172 637.366 677.81 636.327 676.731C635.287 675.652 633.951 674.906 632.487 674.586C631.023 674.266 629.498 674.387 628.103 674.934C626.708 675.48 625.506 676.428 624.65 677.657C623.793 678.887 623.32 680.342 623.29 681.84C623.272 682.84 623.451 683.834 623.818 684.765C624.185 685.695 624.732 686.544 625.428 687.262C626.124 687.981 626.955 688.554 627.874 688.95C628.792 689.346 629.78 689.557 630.78 689.57H630.74ZM138.1 698.22C136.107 698.218 134.192 698.994 132.763 700.384C131.335 701.774 130.506 703.667 130.454 705.66C130.401 707.652 131.13 709.587 132.484 711.049C133.838 712.512 135.71 713.388 137.7 713.49C138.718 713.542 139.736 713.39 140.695 713.043C141.653 712.695 142.532 712.159 143.28 711.467C144.028 710.775 144.63 709.94 145.051 709.011C145.471 708.082 145.702 707.079 145.728 706.06C145.755 705.041 145.577 704.027 145.206 703.078C144.835 702.128 144.278 701.263 143.567 700.532C142.856 699.802 142.006 699.221 141.067 698.824C140.128 698.426 139.12 698.221 138.1 698.22ZM940.54 681.22C940.591 680.2 940.435 679.181 940.084 678.222C939.733 677.264 939.193 676.385 938.495 675.64C937.798 674.894 936.958 674.296 936.025 673.881C935.092 673.467 934.085 673.244 933.065 673.226C932.044 673.207 931.03 673.395 930.083 673.776C929.136 674.157 928.275 674.725 927.552 675.446C926.828 676.166 926.257 677.025 925.872 677.97C925.487 678.916 925.296 679.929 925.31 680.95C925.338 682.929 926.134 684.82 927.531 686.222C928.928 687.624 930.815 688.428 932.794 688.463C934.773 688.498 936.688 687.762 938.134 686.41C939.58 685.058 940.443 683.197 940.54 681.22ZM537.13 86.93C538.13 86.9136 539.115 86.697 540.029 86.2927C540.943 85.8885 541.767 85.305 542.451 84.5768C543.136 83.8485 543.667 82.9903 544.014 82.053C544.361 81.1157 544.516 80.1184 544.47 79.12C544.439 78.1246 544.213 77.145 543.803 76.2371C543.394 75.3293 542.81 74.511 542.084 73.829C541.358 73.1469 540.505 72.6145 539.574 72.2621C538.642 71.9096 537.651 71.7441 536.655 71.775C535.66 71.8059 534.68 72.0325 533.772 72.4419C532.865 72.8514 532.046 73.4356 531.364 74.1613C530.682 74.887 530.15 75.7399 529.797 76.6714C529.445 77.6028 529.279 78.5946 529.31 79.59C529.325 80.5906 529.541 81.5779 529.946 82.4932C530.35 83.4086 530.934 84.2332 531.664 84.918C532.394 85.6029 533.254 86.1339 534.193 86.4796C535.132 86.8252 536.131 86.9784 537.13 86.93ZM346.75 689.45C344.736 689.491 342.817 690.313 341.397 691.742C339.978 693.171 339.168 695.096 339.14 697.11C339.121 698.111 339.305 699.105 339.681 700.032C340.057 700.96 340.617 701.801 341.327 702.506C342.037 703.211 342.883 703.764 343.814 704.133C344.744 704.501 345.74 704.677 346.74 704.65C347.739 704.666 348.731 704.482 349.658 704.11C350.585 703.738 351.429 703.185 352.139 702.483C352.85 701.781 353.413 700.944 353.796 700.021C354.179 699.099 354.374 698.109 354.37 697.11C354.35 695.092 353.541 693.161 352.118 691.73C350.694 690.299 348.768 689.481 346.75 689.45ZM838.23 49.12C838.16 47.6232 837.647 46.1809 836.757 44.9754C835.867 43.7699 834.639 42.8552 833.23 42.347C831.82 41.8387 830.291 41.7597 828.837 42.12C827.382 42.4802 826.067 43.2634 825.057 44.3708C824.048 45.4781 823.389 46.8598 823.164 48.3414C822.94 49.823 823.159 51.3379 823.795 52.6947C824.431 54.0516 825.455 55.1895 826.737 55.9646C828.02 56.7398 829.503 57.1175 831 57.05C833.008 56.9489 834.894 56.0588 836.248 54.5735C837.602 53.0883 838.315 51.1281 838.23 49.12Z" fill="black"/>
<path d="M821.009 336.637L696.637 211L571 335.372L695.372 461.009L821.009 336.637Z" fill="#FFDA00"/>
<path d="M695.44 452.937C694.103 452.937 692.766 452.436 691.722 451.433L580.187 338.728C578.223 336.723 578.223 333.465 580.228 331.502L692.933 219.966C693.894 219.005 695.231 218.504 696.568 218.504C697.946 218.504 699.199 219.047 700.16 220.008L811.696 332.713C812.656 333.674 813.199 334.969 813.158 336.347C813.116 337.726 812.615 338.979 811.654 339.94L698.949 451.475C697.988 452.436 696.693 452.937 695.44 452.937ZM693.852 449.345C694.646 450.18 696.025 450.18 696.86 449.345L809.565 337.809C809.983 337.433 810.192 336.89 810.192 336.306C810.192 335.721 809.983 335.219 809.565 334.802L698.03 222.097C697.194 221.261 695.858 221.261 695.022 222.097L582.317 333.632C581.482 334.467 581.482 335.804 582.317 336.64L693.852 449.345Z" fill="#313131"/>
<path d="M661.06 320.64L636.665 320.515V329.664L657.927 329.789V338.102L636.581 337.976V349.422L661.353 349.548V358.571L625.929 358.404L626.179 311.492L661.144 311.659V320.682L661.06 320.64Z" fill="#313131"/>
<path d="M701.288 358.738L688.13 334.676L683.326 325.528C683.451 327.993 683.451 329.747 683.451 331.167C683.493 333.716 683.493 336.431 683.451 339.397L683.367 358.654H673.718L673.968 311.701H684.955L697.779 335.178C699.576 338.687 700.787 341.151 702.5 344.702C702.374 342.822 702.374 341.527 702.374 340.149V336.64V333.256L702.5 311.868H712.149L711.899 358.863H701.33L701.288 358.738Z" fill="#313131"/>
<path d="M726.728 311.952L742.644 312.035C752.126 312.077 757.139 313.79 761.317 318.594C765.035 322.813 767.04 328.745 766.998 335.345C766.998 342.237 764.7 348.629 760.774 352.848C756.68 357.192 751.458 358.989 742.727 358.947L726.478 358.863L726.728 311.952ZM744.19 349.966C748.952 349.966 751.876 348.671 753.839 345.454C755.385 342.864 756.179 339.606 756.22 335.554C756.22 331.627 755.552 328.494 754.006 325.82C752.21 322.562 749.328 321.1 745.025 321.058H737.213L737.088 349.924H744.19V349.966Z" fill="#313131"/>
<path d="M695.523 248.372C696.977 248.372 698.155 247.194 698.155 245.741C698.155 244.287 696.977 243.109 695.523 243.109C694.07 243.109 692.892 244.287 692.892 245.741C692.892 247.194 694.07 248.372 695.523 248.372Z" fill="#313131"/>
<path d="M694.604 426.369C696.058 426.369 697.236 425.191 697.236 423.738C697.236 422.284 696.058 421.106 694.604 421.106C693.151 421.106 691.973 422.284 691.973 423.738C691.973 425.191 693.151 426.369 694.604 426.369Z" fill="#313131"/>
<path d="M790.642 338.812C792.095 338.812 793.273 337.634 793.273 336.18C793.273 334.727 792.095 333.549 790.642 333.549C789.188 333.549 788.01 334.727 788.01 336.18C788.01 337.634 789.188 338.812 790.642 338.812Z" fill="#313131"/>
<path d="M601.408 338.144C602.861 338.144 604.039 336.965 604.039 335.512C604.039 334.058 602.861 332.88 601.408 332.88C599.954 332.88 598.776 334.058 598.776 335.512C598.776 336.965 599.954 338.144 601.408 338.144Z" fill="#313131"/>
</g>
<defs>
<clipPath id="clip0_11_182">
<rect width="1000.91" height="722.89" fill="white"/>
</clipPath>
</defs>
</svg>
