<?xml version="1.0" encoding="UTF-8"?><svg id="Layer_2" xmlns="http://www.w3.org/2000/svg" viewBox="0 0 213.75 176.21"><defs><style>.cls-1{fill:#f7f3f3;stroke-width:0px;}</style></defs><g id="Layer_1-2"><path class="cls-1" d="M212.94,58.09c-25.64-21.32-55.08-37.38-86.88-47.37-.27-.31-.62-.57-1.17-.66-15.32-2.38-30.64-4.76-45.95-7.14-4.01-.62-8.02-1.25-12.04-1.87-2.38-.37-5.42-1.36-7.87-.97-4.69.73-6.95,7.9-9.06,11.42C34.23,37.75,17.28,63.23.33,88.7c-.83,1.25.03,2.88,1.34,3.29,4.8,1.5,9.66,2.81,14.54,4.06-.04.22-.15.42-.12.67,1.54,12.71,3.09,25.43,4.63,38.14.77,6.36,1.54,12.71,2.32,19.07.56,4.6,1.52,7.35,6.15,8.98,22.31,7.86,46.68,9.03,69.81,13.22.02,0,.04,0,.07,0,.02,0,.04,0,.07,0,.44.11.89.14,1.35,0,32.05-9.72,63.66-20.89,94.66-33.57,4.24-1.73,12.54-3.18,13.58-8.6.62-3.21-.43-7.42-.75-10.65-.38-3.83-.77-7.66-1.22-11.48-1.72-14.8-4.27-29.47-8.82-43.67,5.42-.86,10.87-2.46,15.01-6.1,1.06-.94,1.11-3.04,0-3.96ZM37.72,159.6c-2.13-.58-5.15-.96-7.05-2.1-2.81-1.68-2.36-6.2-2.71-9.14-.68-5.56-1.35-11.12-2.03-16.69-1.27-10.48-2.55-20.97-3.82-31.45,16.81,3.44,33.62,6.88,50.43,10.32,1.04.35,2.1.66,3.14,1.02,1.56.55,2.58-.64,2.68-1.93,1.24-2.42,2.49-4.85,3.73-7.27,4.11,19.75,8.22,39.51,12.34,59.26.38,2.79.87,5.57,1.51,8.31-19.43-3.26-39.15-5.15-58.21-10.34ZM182.62,141.58c-6.32,2.5-12.67,4.93-19.05,7.31.29-4.09.24-8.18-.3-12.26-.66-5.02-2.39-9.58-3.82-14.4-1.56-5.26-2.77-10.61-3.84-15.99-.52-2.6-1.4-5.43-1.53-8.08-.1-2.02.42-1.89,2.35-2.5,1.26-.39,2.53-.74,3.82-1.05,2.88-.69,5.8-1.15,8.76-1.34.49-.03,2.73,3.48,2.9,4.23,1.22,5.44,2.44,10.87,3.66,16.31,2.06,9.18,3.49,18.98,7.58,27.56-.18.07-.35.14-.53.21ZM194.31,63.04c-.27.03-.49.14-.72.23-.14.03-.26.08-.39.13-.02.01-.04.02-.06.03-1.19.46-2.06,1.59-1.52,3.16,4.8,13.99,7.52,28.49,9.3,43.15.42,3.47.79,6.95,1.15,10.43.32,3.11,1.51,7.35,1.01,10.44-.68,4.22-6.82,5.48-10.42,6.95-1.42.58-2.85,1.14-4.28,1.72-3.92-7.95-5.21-17.24-7.13-25.79-1.13-5.05-2.26-10.09-3.4-15.14-.71-3.18-.75-9.04-4.35-10.44-3.45-1.35-8.99.14-12.5.83-2.41.47-4.78,1.1-7.1,1.88-1.68.57-3.85,1.11-4.96,2.63-1.16,1.6-.76,3.46-.44,5.26.44,2.51.91,5.01,1.4,7.51.97,5,2.04,9.98,3.37,14.89,1.41,5.16,3.53,10.14,4.37,15.44.77,4.84.67,9.8.17,14.66-18.48,6.77-37.13,13.05-55.95,18.82-.63-3.01-1.26-6.03-1.89-9.05-.52-3.6-.94-7.21-1.47-10.81-.91-6.2-2.21-12.36-3.46-18.5-2.6-12.77-9.25-38.55-9.35-38.73,3.02-7.12,6.06-14.24,9.34-21.25l5.38-10.89c7.94-15.02,18.28-28.63,25.55-43.99,29.21,9.36,56.43,24.02,80.3,43.29-3.61,1.93-8.09,2.73-11.93,3.16Z"/><path class="cls-1" d="M122.4,103.91c-3.99.73-6.61,2.96-9.28,5.82-1.88,2.03-1.79,4.18-1.29,6.75.5,2.56,1.07,5.11,1.66,7.65,1.2,5.06,2.56,10.07,3.99,15.06.44,1.55,1.94,2.23,3.45,1.96,3.74-.68,7.7-1.1,11.25-2.51,3.35-1.32,7.47-3.42,9.39-6.61,1.14-1.88.98-4.07.6-6.14-.4-2.17-.94-4.33-1.44-6.48-1.02-4.37-2.13-8.71-3.33-13.04-.04-.15-.13-.25-.19-.38-.06-.15-.13-.29-.22-.43-.11-.16-.22-.31-.35-.43-.16-.16-.33-.29-.52-.4-.08-.04-.16-.08-.25-.12-.14-.06-.26-.17-.43-.2-4.31-.77-8.71-1.29-13.06-.5Z"/><path class="cls-1" d="M37.42,123.47c.27,1.88.51,3.76.84,5.64.33,1.85.93,3.66,1.16,5.52.2,1.59.19,3.2.36,4.79.22,2.07.82,4.02,1.16,6.05.71,4.24,5.94,4.63,9.38,5.42,4.19.97,8.43,1.72,12.69,2.3,1.74.24,3.84.82,5.52.04,2.06-.95,2.45-3.02,2.04-5.06-1.88-9.41-4.45-18.73-6.67-28.07-.26-1.08-.97-1.64-1.78-1.86-.07-.03-.11-.07-.18-.1-3.95-1.19-7.8-2.66-11.72-3.91-1.76-.56-3.53-1.08-5.33-1.5-1.85-.43-4.21-1.18-6.08-.56-2,.66-2.97,2.77-2.61,4.75.4,2.19.89,4.34,1.2,6.55Z"/></g></svg>