<svg width="31" height="24" viewBox="0 0 31 24" fill="none" xmlns="http://www.w3.org/2000/svg">
<path d="M17.9707 4.936H12.4351C11.8684 4.936 11.409 5.39538 11.409 5.96205V5.96628C11.409 6.53295 11.8684 6.99233 12.4351 6.99233H17.9707C18.5373 6.99233 18.9967 6.53295 18.9967 5.96628V5.96205C18.9967 5.39538 18.5373 4.936 17.9707 4.936Z" fill="#F6F1F1"/>
<path d="M29.4472 6.27875C29.4008 6.27875 29.3543 6.27031 29.2741 6.26186C29.2741 5.90718 29.2614 5.56094 29.2868 5.21892C29.291 5.14292 29.4261 5.05425 29.519 5.0078C30.1143 4.71223 30.4901 4.08309 30.4564 3.43706C30.4226 2.81214 29.9835 2.25478 29.367 2.0521C28.5436 1.77764 27.6316 2.17877 27.3107 2.9557C26.9855 3.74529 27.3529 4.632 28.172 5.0078C28.3283 5.07958 28.3958 5.15558 28.3874 5.33293C28.3747 5.63694 28.3874 5.94095 28.3874 6.27875C28.2523 6.27875 28.1467 6.27875 28.0411 6.27875C27.5851 6.27875 27.4416 6.42653 27.4416 6.891C27.4416 7.36814 27.4289 7.84105 27.4458 8.31818C27.4542 8.55042 27.3613 8.60531 27.1502 8.59686C26.3986 8.56731 25.8075 8.22107 25.3092 7.68904C25.1446 7.51592 24.9968 7.33013 24.8574 7.1359C23.9074 5.79739 22.6407 4.86001 21.129 4.24354C21.053 4.21398 20.9855 4.17598 20.9306 4.13376C20.1368 1.73542 17.8693 0 15.2092 0C12.5491 0 10.2774 1.73964 9.48357 4.14642C9.44135 4.1802 9.39912 4.20976 9.3569 4.22665C7.79882 4.86846 6.50254 5.83962 5.52716 7.2288C5.12603 7.79882 4.64889 8.28863 3.96486 8.49975C3.68196 8.58842 3.3695 8.59264 3.01904 8.64331V7.18657C3.01904 6.57573 2.70376 6.23653 2.07321 6.16897C2.07321 5.81428 2.06477 5.45115 2.08166 5.09225C2.08166 5.03313 2.20833 4.96135 2.28856 4.92335C2.94303 4.61511 3.32727 3.9733 3.25971 3.29772C3.18793 2.58413 2.69813 2.02254 2.00143 1.84942C1.21606 1.65519 0.409575 2.07321 0.118227 2.8248C0.0802256 2.92614 0.0422243 3.02326 0 3.1246V3.77907C0.202676 4.32799 0.510913 4.77556 1.09361 4.98246C1.13583 4.99935 1.17806 5.09225 1.17806 5.14714C1.1865 5.48071 1.17806 5.8185 1.17806 6.1943C0.996492 6.1943 0.844485 6.19008 0.688255 6.1943C0.380018 6.20697 0.236455 6.34631 0.219566 6.65032C0.215343 6.73055 0.219566 6.81078 0.219566 6.88678C0.219566 12.3168 0.219566 17.7469 0.219566 23.1769C0.219566 23.8103 0.299792 23.8905 0.945824 23.8905C1.46096 23.8905 1.9761 23.8905 2.49123 23.8905C2.86281 23.8905 3.01481 23.7343 3.02326 23.3627C3.0317 22.9911 3.02326 22.6153 3.02326 22.2142H5.13447C8.11973 22.2142 11.1008 22.2142 14.086 22.2142C14.6307 22.2142 14.7489 22.1002 14.7489 21.5513C14.7489 18.5196 14.7489 15.4879 14.7489 12.4562V12.0973H15.7454V12.4731C15.7454 15.2472 15.7454 18.0213 15.7454 20.7955C15.7454 21.3697 15.8425 21.4584 16.4084 21.4922C18.1987 21.6019 19.989 21.7202 21.7793 21.8342C23.4387 21.9397 25.1023 22.0411 26.7617 22.1466C26.9771 22.1593 27.1924 22.1762 27.4416 22.1973C27.4416 22.3324 27.4416 22.4506 27.4416 22.5647C27.4331 24.1692 27.3402 23.9918 28.8856 23.9961C29.1516 23.9961 29.4219 23.9961 29.6879 23.9961C30.0552 23.9918 30.2284 23.8187 30.241 23.4514C30.241 23.3542 30.241 23.2529 30.241 23.1558C30.241 17.806 30.241 12.4519 30.241 7.10212C30.241 6.51943 30.2452 6.21541 29.443 6.2703L29.4472 6.27875ZM0.85293 3.43283C0.861374 3.01481 1.19495 2.68969 1.61719 2.68969C2.0521 2.68969 2.38567 3.02748 2.37723 3.46239C2.36878 3.88463 2.0521 4.18865 1.61719 4.18865C1.17383 4.18865 0.844485 3.86352 0.85293 3.43283ZM2.11544 23.0207H1.11894V7.12746H2.11544V23.0207ZM3.03592 21.3148C3.03592 18.0973 3.03592 12.6757 3.03592 9.45824C3.43283 9.46668 3.60595 9.50891 4.14642 9.34845C4.14642 12.5871 4.27732 18.0635 4.27732 21.3148H3.04015H3.03592ZM6.13941 21.3106H5.18514V20.9981C5.18514 17.8651 5.18514 11.9621 5.18092 8.8291C5.30337 8.74465 5.27803 8.76154 5.46804 8.59264C5.67072 8.41952 5.94095 8.10706 6.14363 7.83683V21.3064L6.13941 21.3106ZM20.1494 6.03385C20.1494 8.76154 17.9326 10.9783 15.205 10.9783C12.4773 10.9783 10.2605 8.76154 10.2605 6.03385C10.2605 3.30616 12.4773 1.08939 15.205 1.08939C17.9326 1.08939 20.1494 3.30616 20.1494 6.03385ZM7.95928 21.319H7.0599C7.05568 21.2093 7.04723 21.1037 7.04723 20.9981C7.04723 17.464 7.04723 10.2689 7.05568 6.73477C7.10635 6.6841 7.16968 6.62358 7.24568 6.55321C7.49481 6.31675 7.65948 6.1943 7.9635 5.95785V21.3148L7.95928 21.319ZM9.8467 20.9052V21.3233H8.87554V20.9348C8.87554 16.7926 8.88399 9.55958 8.86287 5.41738C9.02755 5.3287 9.04866 5.31604 9.23022 5.21892C9.19222 5.48493 9.17533 5.75517 9.17533 6.03385C9.17533 7.00923 9.40757 7.92972 9.82137 8.74465C9.8467 8.98532 9.85937 9.17533 9.85937 9.29356C9.82981 13.1191 9.8467 17.0839 9.8467 20.9095V20.9052ZM11.6581 21.2346C11.6581 21.2346 11.6497 21.2726 11.637 21.319H10.7587V10.1592C11.0585 10.421 11.3414 10.6616 11.6117 10.9108C11.6539 10.9488 11.6623 11.0374 11.6623 11.1008C11.6623 14.4787 11.6623 17.8566 11.6623 21.2346H11.6581ZM13.8327 21.3148H12.5702V11.5188C12.9882 11.6666 13.4062 11.8144 13.8327 11.9664V21.319V21.3148ZM17.8651 20.7321C17.464 20.7068 17.0713 20.6857 16.649 20.6603C16.6406 20.5506 16.6279 20.445 16.6279 20.3437C16.6279 17.6413 16.6279 14.9347 16.6237 12.2324C16.6237 12.0044 16.6828 11.903 16.915 11.8481C17.2275 11.7721 17.5273 11.637 17.8651 11.5146V20.7363V20.7321ZM19.6892 20.8503C19.3809 20.8292 19.098 20.8081 18.7729 20.7828V20.4534C18.7729 17.3837 18.7729 14.3098 18.7687 11.2401C18.7687 11.0205 18.8236 10.8728 19.0009 10.7376C19.2332 10.5603 19.4401 10.3492 19.6892 10.1254V20.8503ZM21.5893 5.4596C21.5682 9.44979 21.5766 16.5561 21.5766 20.5463V20.9644C21.2473 20.9432 20.9475 20.9221 20.6054 20.901V20.5717C20.6054 16.7208 20.5928 12.87 20.6223 9.0191C20.6688 8.79954 20.711 8.59686 20.749 8.40263C21.0615 7.67637 21.2346 6.87411 21.2346 6.03385C21.2346 5.75095 21.2135 5.47227 21.1755 5.19781C21.6357 5.40048 21.5935 5.35826 21.5893 5.4596ZM23.4049 20.9559C23.4049 20.9855 23.3922 21.015 23.3796 21.0784C23.0925 21.0615 22.8011 21.0404 22.4886 21.0192V5.91562C22.8011 6.18163 23.4049 6.69677 23.4049 6.78122C23.4049 10.3281 23.4049 17.4091 23.4049 20.9559ZM25.267 20.8166V21.1924C24.9419 21.1713 24.6463 21.1544 24.3254 21.1375V7.87483C24.6252 8.33929 25.2459 8.76998 25.2586 8.81221C25.2966 8.9431 25.267 17.8651 25.267 20.8166ZM27.4162 21.3317C26.9982 21.3064 26.6055 21.281 26.1875 21.2515V9.29356C26.6815 9.46246 26.9982 9.44979 27.4162 9.47513V21.3317ZM28.0707 3.55106C28.0665 3.14149 28.4043 2.82058 28.8392 2.82903C29.2403 2.83325 29.5908 3.17104 29.5908 3.55528C29.5908 3.96064 29.2614 4.26465 28.8096 4.26043C28.3747 4.26043 28.0707 3.96908 28.0665 3.55106H28.0707ZM29.3248 23.1305H28.3452V7.19079H29.3248V23.1305Z" fill="#F6F1F1"/>
</svg>
