<?xml version="1.0" encoding="UTF-8"?><svg id="Layer_2" xmlns="http://www.w3.org/2000/svg" viewBox="0 0 641.6 91.37"><defs><style>.cls-1{stroke:#2d2d2d;stroke-miterlimit:10;stroke-width:.5px;}.cls-1,.cls-2{fill:#fff;}.cls-3{fill:#2d2d2d;}.cls-3,.cls-2{stroke-width:0px;}</style></defs><g id="Layer_1-2"><path class="cls-1" d="M484.3,21.9c16.44-.12,35.44-.72,51.88-.4,3.91.08,7.81.37,11.69.87,11.73,1.52,23.45,3.18,35.16,4.91,7.6,1.12,16.03,1.48,23.26,4.36,3.85,1.54,7.59,3.65,11.16,5.77,1.78,1.06,3.52,2.18,5.14,3.48.5.4.98.82,1.45,1.25,2.13,1.98,1.35,2.64,4.6.82,3.59-2.02,2.02-2.93,3.03-6.54.32-1.13.78-2.21,1.39-3.21.99-1.62,3.19-4.32,5.17-4.63,4.23-.66,3.14,5.7,2.48,8.17-2.14,7.92-1.51,15.13-7.59,21.17-3.66,3.64-6.42,6.97-7.23,12.38-.63,4.21.14,8.55-.44,12.79-.92,6.85-4.05,7.13-10.4,7.36-.98.04-1.73-.93-1.31-1.91.35-.82.91-1.16,1.25-1.9,1.04-2.29.68-3.09.31-5.55-.47-3.17-.93-6.35-1.4-9.52-.59.15-1.17.32-1.6.56-2.45,1.39-1.86,1.57-2.02,4.66-.19,3.37.35,7.7-.95,10.84-1.15,2.78-4.38,3.99-7.09,3.28-.73-.19-1.44-1.09-.96-1.9,2.43-4.11.05-10.59-.94-15-.45-2.02-.26-2.23-1.93-2.73-1.51-.45-3.62-.28-5.17-.41-6.42-.54-12.84-1.13-19.24-1.84-6.37-.71-12.74-1.43-19.11-2.15-8.58-.96-17.16-1.93-25.73-2.89-4.81-.54-9.51-1.75-14.35-2.24-8.22-.84-16.72,1.8-25.01,1.99-22.84-.12-43.08-2.31-65.92-2.43-7.56-.04-15.13-.08-22.65.7-13.59,1.42-27.58.29-41.23,1-13.4.7-43.76-2.47-57.16-1.65-32.31,1.99-33.75,6.78-67.84,5.25-24.32-1.1-47.29-1.19-70.96-6.85-8.2-.63-16.36-1.45-24.45-2.58-15.92-2.2-31.84-4.39-47.78-6.38-5.13-.64-13.55-1.17-18.71-1.42-2.53-.12-5.08-.36-7.55-.17-5.63.44-5.21,8.61-4.88,13.05.15,1.98,1.04,3.67-.41,5.26-1.26,1.38-3.66,1.74-5.39,1.96-1.06.13-1.56-1.21-.98-2,2-2.73,2.87-15.94-.72-17.4-5.9-2.39-8.75,9.72-6.41,13.4.28.43.29,1.09-.07,1.48-1.45,1.57-5.38,5.88-7.16,2.82-.84-1.45,1.04-4.41,1.29-5.91.61-3.58.4-7.28.36-10.9-.09-7.76-.1-16.2-5.53-22.14-4.18-4.57-10.42-1.2-15.83-1.59-1.18-.09-1.21-1.99-.17-2.33,1.26-.42,3.36-.7,4.97-1.41-2.83-.14-5.66-.31-8.46-.68-3.85-.51-8.59-2.89-10.81-6.33-2.86-4.43,1.65-5.53,5.11-5.88,1.24-.13,2.6-.03,3.78-.45,2.02-.72,1.09-.6,3.09-3.22.36-.47.55-1.08.96-1.53,1.73-1.91,5.17-3.35,7.59-3.97,5.1-1.32,10.99-.36,15.78,1.64,6.99,2.91,11.88,9,17.53,13.88,2.57,2.21,4.86,4.58,8.38,4.91,2.21.21,4.56-.27,6.74-.56,4.09-.54,8.19-1.22,12.33-1.35,16.32-.51,32.69,2.36,49,2.65,7.97.14,15.96.23,23.95.26l324.68-.73"/><path class="cls-2" d="M603.08,91.08c-.29-.03-.57-.08-.84-.15-.06-.02-.12-.04-.18-.06.06.03.12.05.18.06.27.07.55.12.84.15ZM615.07,90.45c.85-.03,1.64-.06,2.37-.11-.74.05-1.53.08-2.39.11h0s.02,0,.02,0ZM601.29,90.16s-.05-.09-.07-.14c-.08-.18-.1-.37-.08-.55-.02.18.01.37.08.55.02.05.04.09.07.14ZM607.34,90.06c.89-.6,1.59-1.43,2-2.42.22-.54.39-1.11.52-1.7-.13.59-.3,1.16-.52,1.7-.45,1.08-1.17,1.87-2,2.42ZM613.99,90.02c-.05-.05-.09-.11-.13-.17-.05-.08-.09-.16-.13-.24.04.08.08.16.13.24.04.06.08.12.13.17ZM613.66,88.79c.02-.08.05-.17.08-.25.06-.15.14-.28.21-.41-.08.12-.15.26-.21.41-.04.08-.06.17-.08.25ZM614.6,87.28c.13-.17.25-.34.35-.55-.1.21-.22.38-.35.55ZM624.6,86.56c.38-.91.66-2.04.86-3.46.12-.91.18-1.84.21-2.76-.03.92-.09,1.85-.21,2.76-.19,1.41-.47,2.55-.86,3.46ZM615.1,86.42c.66-1.52.66-2.38.49-3.61.18,1.26.18,2.09-.49,3.61ZM610.24,79.83h0v.03-.03ZM610.24,77.96c0-.4.02-.79.04-1.16.03-.61.04-1.11.04-1.52,0-.66,0-1.11.13-1.49-.11.37-.12.82-.13,1.49,0,.42,0,.91-.04,1.52-.02.38-.03.76-.04,1.16ZM625.64,76.16c0,.23.02,1.25.03,1.54,0-.29-.02-1.32-.03-1.54ZM600.87,76.14c.02.09.19.75.26,1-.06-.25-.23-.91-.26-1ZM613.91,71.57l.64,4.37-.64-4.37ZM600.76,75.72c-.15-.6-.29-1.16-.41-1.7-.02-.08-.04-.16-.05-.23.02.08.03.15.05.23.12.54.26,1.11.41,1.7ZM600.2,73.32c-.21-1.02-.32-1.4-.88-1.7.59.3.67.69.88,1.7.02.11.05.23.07.35-.03-.12-.05-.24-.07-.35ZM612.31,72.13c.13-.08.28-.14.43-.2-.15.06-.3.13-.43.2-.07.04-.13.07-.19.11.06-.04.12-.07.19-.11ZM612.74,71.93s0,0,0,0ZM594.29,70.92c-.3,0-.59-.02-.87-.04.28.02.57.03.87.04ZM54.74,69.51c-.34,0-.64-.17-.84-.46.2.29.51.45.85.45.04,0,.09,0,.14,0-.05,0-.1.01-.15.01ZM54.95,69.49c1.58-.2,3.3-.49,4.53-1.29-1.23.79-2.95,1.08-4.53,1.29ZM41.22,68.87c-.07,0-.14,0-.21-.01-.03,0-.06,0-.08-.01.03,0,.06,0,.09.01.07,0,.14.01.2.01,1.65,0,3.69-1.95,5.32-3.7-1.17,1.27-3.47,3.7-5.32,3.7ZM53.67,68.39h0ZM53.67,68.39h0ZM53.67,68.38s0,0,0,0ZM53.67,68.38s0-.02,0,0ZM553.28,66.7s12.25,1.38,14.59,1.64c-2.33-.26-14.59-1.64-14.59-1.64ZM53.67,68.3s0,0,0,0ZM53.67,68.3s0,0,0,0ZM39.48,67.67c-.39-.85.04-2.15.52-3.38-.47,1.2-.9,2.53-.52,3.38ZM60.4,67.4c.86-1.05.75-2.16.55-3.33.21,1.21.31,2.29-.55,3.33ZM54.05,67.29c1.42-2.34,2.21-10.19,1-14.43-.39-1.38-.97-2.3-1.69-2.69.72.38,1.29,1.29,1.69,2.69,1.23,4.34.45,12.06-1,14.43ZM238.95,66.77c-1.27-.04-2.58-.09-3.94-.15-1.83-.08-3.64-.16-5.45-.23,1.81.07,3.63.15,5.46.23,1.36.06,2.67.11,3.94.15ZM263.14,66.13c4.1-.43,7.77-1,11.7-1.62.61-.09,1.22-.19,1.85-.29-.62.1-1.24.19-1.84.29-3.93.61-7.61,1.19-11.71,1.62ZM207.38,65.42c-12.58-.69-24.91-1.81-37.45-4.36,12.54,2.55,24.87,3.67,37.45,4.36ZM46.67,65.01c.41-.45.37-1.11.11-1.52-1.61-2.52-.79-8.58,1.52-11.7-2.26,3.08-3.1,9.23-1.52,11.7.26.4.32,1.06-.07,1.48l-.03.04ZM489.81,63.74c.67-.02,1.34-.05,2.01-.09-.67.04-1.34.08-2.01.09-.32,0-.33,0,0,0ZM355.54,63.11c-.72,0-1.46,0-2.23-.02.76.01,1.5.02,2.22.02,1.7,0,3.21-.03,4.49-.1.95-.05,1.9-.09,2.85-.12-.95.03-1.9.07-2.85.12-1.27.07-2.78.1-4.47.1ZM496.99,63.11c1.06-.14,2.12-.29,3.16-.44.53-.07,1.05-.15,1.58-.22-.52.07-1.04.15-1.56.22-1.06.15-2.12.3-3.19.45ZM450.67,62.2c2.07.11,10.39.55,12.52.66-2.12-.11-10.44-.55-12.52-.66ZM388.3,62.73c4.18-.08,8.62-.27,12.94-.72,1.21-.13,2.42-.23,3.63-.32-1.21.09-2.42.19-3.63.32-4.33.45-8.7.64-12.94.72ZM520.53,62.59c-1.88-.33-3.8-.64-5.71-.84q-.18-.02,0,0c1.92.19,3.83.5,5.71.84ZM60.66,61.96c-.18-2.37-.42-6.35.66-9.24-.92,2.51-.89,6-.66,9.24ZM303.18,61.35c-.11,0-1.5.09-2.07.13.57-.04,1.96-.13,2.07-.13ZM630.42,60.8s0,0,0,0ZM630.42,60.8c.85-1,1.76-1.94,2.7-2.87,1.2-1.19,2.14-2.44,2.9-3.73-.75,1.29-1.69,2.53-2.89,3.73-.94.93-1.85,1.87-2.7,2.87ZM160.9,59.51c-7.61-.63-14.59-1.39-21.3-2.32-16.12-2.23-31.91-4.4-47.76-6.37,15.85,1.97,31.63,4.14,47.76,6.37,6.69.93,13.69,1.69,21.3,2.32ZM41.2,50.99v-.84c0,.17.04,3.44.05,3.79,0-.35-.04-2.42-.05-2.94ZM48.76,51.24c.88-.97,1.86-1.46,2.93-1.46.39,0,.8.07,1.21.21-.4-.13-.8-.2-1.2-.2-1.06,0-2.08.5-2.95,1.45ZM80.25,49.8c-2.49-.17-4.96-.3-7.14-.41-.5-.02-1-.05-1.5-.08h.05c.48.03.96.06,1.44.08,2.18.1,4.65.24,7.14.41ZM70.34,49.24c-.92-.05-1.85-.09-2.78-.09-.62,0-1.19.02-1.72.05.54-.04,1.11-.05,1.73-.05.92,0,1.86.04,2.78.09ZM626.22,44.04c-.19,0-.36-.07-.54-.21.17.13.36.2.58.2.05,0,.1,0,.15,0-.07.01-.13.02-.19.02ZM624.99,43.12s.16.18.19.21c-.03-.03-.15-.17-.19-.21ZM639.37,43.16s0-.01,0-.02v.08s0-.04,0-.06ZM624.49,42.58c-.13-.14-.28-.28-.45-.43-.45-.42-.94-.84-1.45-1.25-1.39-1.12-2.98-2.19-5.14-3.48q-.36-.21,0,0c2.16,1.28,3.75,2.35,5.14,3.48.51.41,1,.83,1.45,1.25.17.15.31.3.45.43ZM630.22,41.88c.44-.41.68-.8.82-1.22-.14.42-.37.81-.82,1.22ZM613.36,35.06c-2.3-1.27-4.67-2.46-7.07-3.42-.96-.38-1.93-.72-2.93-1.02.99.3,1.97.64,2.93,1.02,2.4.96,4.77,2.15,7.07,3.42ZM640.92,29.91c-.12-.25-.26-.48-.43-.67-.22-.25-.48-.43-.79-.54.3.11.56.29.79.54.17.19.31.42.42.67ZM36.06,29.3c-.13-.15-.26-.3-.39-.45-.15-.16-.3-.31-.45-.46.15.14.31.3.45.46.13.15.27.29.39.45ZM592.29,28.46c-1.19-.15-2.38-.3-3.56-.44-1.39-.17-2.81-.34-4.21-.53,1.44.19,2.89.37,4.21.52,1.18.14,2.37.28,3.56.44ZM20.8,27.3c-.28,0-.55,0-.82-.03.26.02.52.02.78.02,1.5,0,3.09-.23,4.49-.43.37-.05.74-.11,1.11-.16-.36.05-.73.1-1.1.16-1.52.22-3.02.44-4.46.44ZM19.25,27c-.16-.16-.27-.39-.31-.67.03.24.13.49.31.67ZM19.08,25.46c.12-.24.32-.44.59-.53.49-.16,1.1-.31,1.75-.46.08-.02.16-.04.24-.05-.08.02-.15.04-.23.05-.67.16-1.28.3-1.76.46-.28.09-.47.29-.59.53ZM23.41,23.46c-2-.11-4.64-.27-7.24-.62-3.55-.47-8.44-2.66-10.81-6.33-.02-.03-.02-.04,0,0,2.26,3.51,7.15,5.84,10.81,6.33,2.83.38,5.74.55,8.46.68,0,0,0,0,0,0l-1.22-.07ZM553.62,23.13c-1.95-.26-3.87-.51-5.76-.76-.79-.1-1.58-.2-2.37-.28.79.08,1.58.18,2.37.28,1.89.25,3.81.5,5.76.76ZM135.46,22.61c.07,0,.25,0,.27,0-.02,0-.2,0-.27,0ZM67.6,21.87c-3.12-.29-5.25-2.17-7.51-4.16l-.12-.11.1.09c2.28,2.01,4.42,3.88,7.54,4.18.04,0,.09,0,.14.01-.05,0-.09,0-.14-.01ZM501.63,21.67c5.83-.09,11.78-.19,17.63-.24-5.78.05-11.65.14-17.39.23h-.24ZM536.18,21.5c-.51,0,.8.02,1.2.03-.4-.01-.8-.02-1.2-.03ZM74.99,21.23c-.21.03-1.03.14-1.23.17.2-.03,1.01-.14,1.23-.17ZM114.21,21.25c-7.77-.67-15.75-1.35-23.64-1.35-1.3,0-2.6.02-3.9.06-3.09.1-6.2.51-9.22.93,3.03-.42,6.14-.83,9.22-.93,1.3-.04,2.6-.06,3.9-.06,7.9,0,15.9.68,23.64,1.35ZM4.46,14.03c0-.36.07-.7.22-1.01.62-1.29,2.52-2.07,5.8-2.41.15-.01.14-.01,0,0-3.23.33-5.18,1.14-5.8,2.41-.15.31-.22.64-.22,1ZM54.71,12.79c-3.33-3.18-6.76-6.46-10.85-8.67,4.09,2.21,7.51,5.48,10.84,8.66.4.38.81.77,1.23,1.17-.41-.39-.82-.78-1.23-1.17ZM12.38,10.51c.38-.03.76-.06,1.13-.14-.37.07-.75.11-1.13.14ZM15.46,9.64c.25-.18.38-.4.61-.79.23-.39.57-.97,1.28-1.91,0,0,0,0,0,0-.71.93-1.05,1.52-1.28,1.91-.23.39-.35.6-.61.79ZM17.76,6.27c.14-.26.28-.52.46-.75-.19.23-.32.49-.46.74-.04.07-.07.14-.11.2.03-.06.07-.13.1-.19ZM18.49,5.23c1.8-1.84,5.09-3.18,7.41-3.79,1.37-.35,2.84-.56,4.39-.6-1.55.04-3.02.25-4.39.6-2.5.65-5.72,2.06-7.41,3.79ZM40.91,2.77s0,0,0,0ZM40.9,2.77c-2.15-.83-4.36-1.4-6.53-1.7,2.17.3,4.38.87,6.53,1.7Z"/><path class="cls-3" d="M30.96.59c-1.79,0-3.52.2-5.11.62-2.44.63-5.92,2.07-7.71,4.05-.25.27-.42.59-.58.89-.13.24-.25.46-.4.65-.72.93-1.07,1.53-1.3,1.93-.41.7-.46.77-1.68,1.21-.79.28-1.69.32-2.56.36-.39.02-.78.04-1.16.07-3.37.34-5.33,1.18-6,2.55-.48,1-.24,2.25.7,3.72,2.41,3.74,7.38,5.96,10.99,6.45,2.41.32,4.89.5,7.25.62-.67.21-1.38.37-2.03.52-.66.15-1.28.3-1.78.46-.7.24-.98,1.01-.9,1.65.08.67.53,1.13,1.14,1.17.32.02.64.03.97.03,1.48,0,3.01-.22,4.49-.44,1.5-.22,2.96-.43,4.36-.43,2.17,0,4.17.52,5.85,2.34,5.29,5.78,5.38,13.84,5.46,21.63v.34c.01.63.02,1.26.04,1.89.06,2.96.12,6.02-.38,8.96-.08.47-.34,1.11-.61,1.8-.6,1.5-1.28,3.2-.65,4.28.41.71.96,1.1,1.65,1.18.08,0,.16.01.24.01,2.03,0,4.44-2.63,5.63-3.92l.04-.05c.48-.51.41-1.3.1-1.79-1.59-2.49-.64-8.85,1.76-11.73.66-.79,1.64-1.59,2.95-1.59.43,0,.89.09,1.39.29.72.29,1.32,1.19,1.71,2.6,1.23,4.32.38,12.41-1.1,14.42-.36.49-.39,1.21-.07,1.76.24.41.65.65,1.1.65.06,0,.12,0,.18-.01,2.02-.26,4.28-.65,5.54-2.04,1.16-1.28.93-2.61.68-4.02-.08-.46-.17-.94-.2-1.43-.43-5.75-.3-12.4,4.65-12.78.65-.05,1.31-.07,1.98-.07,1.29,0,2.6.08,3.89.15.55.03,1.1.06,1.65.09,5.89.28,13.96.83,18.69,1.42,15.81,1.97,31.62,4.14,47.78,6.38,7.61,1.05,15.61,1.9,24.43,2.57,20.24,4.84,39.75,5.61,60.42,6.42,3.51.14,7.04.28,10.59.44,4.62.21,8.64.3,12.21.3,12.25,0,19.28-1.09,27.67-2.4,7.07-1.1,15.08-2.35,27.99-3.15,1.55-.1,3.34-.14,5.3-.14,6.68,0,15.42.48,23.94.95,8.37.46,16.96.93,23.43.93,1.65,0,3.15-.03,4.49-.1,4.11-.21,8.3-.26,12.45-.26,1.62,0,3.24,0,4.84.01,1.62,0,3.25.01,4.88.01,6.34,0,12.78-.11,19.06-.77,5.84-.61,11.8-.72,17.66-.72,1.66,0,3.32,0,4.97.02,11.42.06,22.36.65,32.95,1.21,10.59.57,21.54,1.15,32.98,1.21,3.44-.08,6.96-.58,10.37-1.07,3.71-.53,7.52-1.08,11.27-1.08,1.12,0,2.23.05,3.34.16,2.5.25,5,.71,7.43,1.14,2.26.41,4.59.83,6.91,1.09l31.71,3.57c4.38.5,8.76.99,13.13,1.47,5.78.64,11.9,1.23,19.25,1.84.52.04,1.09.05,1.69.06,1.21.02,2.46.04,3.43.34,1.3.39,1.33.5,1.6,1.84.04.21.09.44.15.71.17.75.38,1.55.59,2.39,1.04,4.05,2.34,9.09.37,12.43-.22.38-.25.81-.08,1.22.2.49.68.92,1.19,1.05.51.13,1.04.2,1.59.2,2.31,0,4.78-1.18,5.79-3.63.95-2.3.94-5.15.92-7.91,0-1.07-.01-2.07.04-3.02.03-.61.04-1.12.04-1.53.01-1.67.01-1.88,1.86-2.93.35-.2.83-.35,1.28-.47l1.36,9.25c.05.35.1.67.15.96.29,1.75.42,2.55-.45,4.45-.15.33-.35.58-.56.84-.24.3-.49.61-.69,1.07-.23.53-.18,1.09.13,1.55.3.44.79.71,1.33.71.03,0,.06,0,.09,0,6.53-.24,9.7-.66,10.64-7.57.28-2.09.24-4.23.2-6.29-.04-2.14-.08-4.35.24-6.49.84-5.56,3.87-8.96,7.16-12.24,4.46-4.43,5.36-9.52,6.32-14.91.37-2.06.75-4.2,1.34-6.38.26-.96,1.46-5.82-.27-7.75-.46-.52-1.09-.78-1.87-.78-.2,0-.4.02-.62.05-2.14.33-4.43,3.25-5.34,4.74-.61,1-1.09,2.1-1.42,3.27-.33,1.18-.39,2.09-.44,2.81-.1,1.51-.15,2.27-2.47,3.57-1.26.71-1.86,1.03-2.26,1.03-.36,0-.57-.25-.97-.7-.27-.3-.6-.68-1.07-1.12-.45-.42-.95-.84-1.47-1.26-1.4-1.13-3-2.21-5.17-3.5-3.53-2.1-7.33-4.25-11.2-5.79-5.49-2.19-11.65-2.93-17.62-3.64-1.89-.23-3.84-.46-5.7-.73-12.92-1.91-24.42-3.51-35.16-4.91-3.89-.51-7.83-.8-11.72-.88-3.37-.07-6.84-.09-10.38-.09-7.93,0-16.17.13-24.23.26-6.04.1-17.28.73-17.28.73,5.54-.04,11.24-.13,17.28-.23,8.06-.13,16.31-.26,24.24-.26,3.53,0,7,.03,10.35.09,3.86.08,7.79.37,11.66.87,10.74,1.39,22.24,3,35.16,4.91,1.87.28,3.82.51,5.72.74,5.93.71,12.06,1.44,17.49,3.61,3.84,1.53,7.62,3.67,11.13,5.75,2.15,1.28,3.73,2.34,5.12,3.46.51.41,1,.83,1.44,1.24.46.42.78.79,1.04,1.08.51.58.83.87,1.31.87.52,0,1.22-.36,2.55-1.11,2.56-1.44,2.62-2.39,2.73-3.97.05-.7.11-1.58.43-2.71.31-1.12.77-2.18,1.36-3.15.87-1.43,3.04-4.2,4.99-4.51.2-.03.38-.05.55-.05.63,0,1.12.2,1.48.61,1.21,1.35.84,4.77.16,7.29-.59,2.2-.98,4.34-1.35,6.42-.95,5.31-1.84,10.32-6.18,14.64-3.36,3.34-6.44,6.81-7.3,12.52-.33,2.18-.28,4.41-.24,6.57.04,2.05.08,4.17-.2,6.22-.88,6.54-3.59,6.9-10.16,7.14-.03,0-.05,0-.08,0-.35,0-.7-.2-.9-.49-.21-.31-.25-.71-.09-1.07.17-.39.39-.67.62-.95.22-.27.45-.56.63-.94.92-2.03.78-2.94.48-4.74-.05-.29-.1-.61-.15-.96l-1.44-9.8-.27.07c-.56.14-1.19.32-1.67.59-2.03,1.15-2.1,1.57-2.11,3.36,0,.41,0,.9-.04,1.51-.05.96-.05,1.97-.04,3.05.01,2.71.03,5.51-.89,7.72-.92,2.24-3.2,3.32-5.32,3.32-.51,0-1.01-.06-1.47-.18-.36-.09-.71-.4-.85-.75-.08-.19-.13-.47.05-.78,2.07-3.51.75-8.66-.32-12.8-.22-.84-.42-1.64-.59-2.38-.06-.26-.11-.49-.15-.7-.3-1.46-.41-1.76-1.95-2.22-1.04-.31-2.33-.34-3.57-.36-.59-.01-1.15-.02-1.66-.06-7.34-.62-13.46-1.2-19.24-1.84-4.38-.49-8.76-.98-13.13-1.47l-31.71-3.57c-2.31-.26-4.63-.68-6.88-1.09-2.43-.44-4.95-.9-7.47-1.15-1.12-.11-2.24-.16-3.38-.16-3.78,0-7.62.55-11.35,1.08-3.39.49-6.9.99-10.3,1.07-11.42-.06-22.36-.65-32.95-1.21-10.59-.57-21.55-1.15-32.97-1.21-1.63,0-3.28-.02-4.93-.02-5.88,0-11.87.11-17.74.72-6.23.65-12.63.77-18.93.77-1.66,0-3.31,0-4.96-.02-1.59,0-3.2-.01-4.82-.01-4.16,0-8.37.05-12.5.26-1.33.07-2.83.1-4.47.1-6.45,0-15.04-.47-23.39-.93-8.52-.47-17.27-.95-23.97-.95-1.97,0-3.77.04-5.33.14-12.93.8-20.96,2.05-28.04,3.15-8.37,1.3-15.37,2.4-27.59,2.4-3.56,0-7.57-.09-12.19-.3-3.56-.16-7.09-.3-10.6-.44-20.64-.81-40.13-1.58-60.36-6.41-8.84-.68-16.83-1.52-24.44-2.57-16.15-2.24-31.96-4.41-47.78-6.38-4.75-.59-12.83-1.14-18.73-1.42-.55-.03-1.1-.06-1.65-.09-1.29-.07-2.61-.15-3.91-.15-.68,0-1.35.02-2.02.07-6.08.47-5.4,9.47-5.11,13.32.04.52.13,1.01.21,1.48.24,1.34.44,2.5-.55,3.6-1.15,1.26-3.3,1.63-5.23,1.88-.04,0-.07,0-.11,0-.38,0-.59-.25-.68-.4-.22-.38-.2-.87.04-1.21,1.57-2.14,2.46-10.33,1.18-14.85-.45-1.59-1.13-2.57-2.01-2.93-.54-.22-1.08-.33-1.6-.33-1.21,0-2.34.6-3.32,1.78-2.55,3.07-3.51,9.63-1.79,12.32.2.32.25.86-.05,1.18l-.04.05c-1.06,1.14-3.5,3.76-5.27,3.76-.06,0-.12,0-.18,0-.52-.06-.94-.36-1.27-.93-.5-.86.16-2.52.69-3.84.28-.71.55-1.38.64-1.9.51-2.98.45-6.07.39-9.05-.01-.63-.02-1.26-.03-1.89v-.34c-.09-7.52-.18-16.04-5.6-21.97-1.79-1.96-3.96-2.5-6.25-2.5-1.44,0-2.93.22-4.39.43-1.48.21-3,.43-4.45.43-.3,0-.6,0-.9-.03-.55-.04-.66-.57-.68-.74-.06-.44.12-.96.57-1.11.47-.16,1.08-.3,1.73-.45,1.05-.25,2.25-.52,3.26-.97l.97-.43-1.06-.05c-2.72-.13-5.63-.31-8.44-.68-3.6-.48-8.41-2.77-10.63-6.22-.85-1.31-1.07-2.4-.67-3.23.57-1.19,2.45-1.95,5.6-2.27.37-.04.75-.05,1.13-.07.91-.04,1.85-.08,2.71-.39,1.36-.48,1.47-.63,1.94-1.43.23-.39.57-.97,1.27-1.88.17-.23.31-.48.44-.72.16-.29.3-.57.51-.79,1.61-1.77,4.91-3.23,7.47-3.9,1.56-.4,3.24-.6,4.99-.6,3.42,0,7.1.76,10.63,2.23,5.04,2.1,9.06,5.94,12.94,9.66,1.46,1.4,2.98,2.84,4.52,4.18.29.25.58.5.86.75,2.29,2.02,4.46,3.92,7.66,4.22.38.04.77.05,1.16.05,1.44,0,2.9-.21,4.33-.42.44-.06.88-.13,1.32-.19.82-.11,1.64-.22,2.45-.34,3.22-.45,6.55-.91,9.85-1.01,1.29-.04,2.59-.06,3.89-.06,7.97,0,16.03.69,23.85,1.37,6.97.6,14.17,1.22,21.24,1.34.99.02,1.86.03,2.61.03,5.35,0,4.49-.4-2.6-.53-7.06-.12-14.25-.74-21.21-1.34-7.84-.67-15.9-1.37-23.89-1.37-1.3,0-2.61.02-3.91.06-3.32.1-6.67.57-9.9,1.02-.82.11-1.63.23-2.45.33-.43.06-.88.12-1.32.19-1.41.21-2.85.42-4.25.42-.38,0-.75-.02-1.12-.05-3.04-.29-5.14-2.14-7.37-4.1-.29-.25-.57-.5-.86-.75-1.54-1.33-3.05-2.77-4.5-4.16-3.92-3.75-7.97-7.62-13.1-9.75-3.59-1.5-7.34-2.27-10.83-2.27h0Z"/><path class="cls-3" d="M3.17,9.02c-.7,0-1.41.32-2.06.93-.99.93-1.34,2.08-.95,3.08.32.81,1.07,1.32,1.95,1.32.7,0,1.41-.32,2.06-.93.99-.93,1.34-2.08.95-3.08-.32-.81-1.07-1.32-1.95-1.32Z"/><path class="cls-3" d="M54.59,6.93c-1.42-2.04-3.7-3.18-5.72-4.19C45.49,1.04,42.66.18,39.99.02c-.18-.01-.36-.02-.54-.02-1.08,0-4.66.23-5.48,3.23-.05.1-.08.22-.09.3-.02.09-.02.15-.02.19,0,.05-.02.13,0,.23.13,1.09.23,2.23.34,3.33v.09c.47,4.91.96,9.98,3.18,14.42,1.07,2.14,2.41,4.51,4.71,5.69,1.04.54,2.25.82,3.49.82s2.56-.3,3.71-.86c4.04-1.97,6.6-6.69,6.86-12.63.12-2.64.02-5.64-1.54-7.89Z"/><path class="cls-3" d="M22.14,7.51c-1.19-.11-1.89,1.15-1.94,2.39-.05,1.13.42,2.31,1.58,2.41.04,0,.08,0,.13,0,1.13,0,1.77-1.2,1.81-2.39.05-1.13-.42-2.31-1.58-2.41Z"/></g></svg>